<svg width="1280" height="832" viewBox="0 0 1280 832" fill="none" xmlns="http://www.w3.org/2000/svg">
<mask id="mask0_5_2" style="mask-type:luminance" maskUnits="userSpaceOnUse" x="0" y="0" width="1280" height="832">
<path d="M1280 0H0V832H1280V0Z" fill="white"/>
</mask>
<g mask="url(#mask0_5_2)">
<path d="M1280 0H0V832H1280V0Z" fill="white"/>
</g>
<mask id="mask1_5_2" style="mask-type:luminance" maskUnits="userSpaceOnUse" x="0" y="0" width="1280" height="832">
<path d="M1279.5 0.5V831.5H0.5V0.5H1279.5Z" fill="white" stroke="white"/>
</mask>
<g mask="url(#mask1_5_2)">
<path d="M-1038.61 1080.87C-960.747 893.568 -749.013 762.944 -535.787 770.744C-365.013 777.088 -193.6 862.368 -30.2934 813.904C88.96 778.544 173.973 678.08 230.72 573.144C287.467 468.208 323.84 353.808 387.947 252.72C452.053 151.632 553.6 61.152 677.867 48.984C782.933 38.688 883.733 85.384 975.68 133.952C1067.52 182.52 1162.35 235.664 1267.84 240.136" stroke="#D0FCD5" stroke-miterlimit="10"/>
<path d="M-1040.85 1074.53C-993.387 963.976 -896.427 876.512 -784.64 828.88C-717.013 800.176 -643.947 785.616 -568.107 785.72C-558.613 785.72 -549.12 786.032 -539.627 786.448C-460.693 790.296 -381.12 807.872 -303.04 820.976C-213.227 836.16 -124.48 845.312 -37.2265 820.352C57.1735 793.832 130.987 735.384 188.587 660.92C205.013 639.704 219.947 617.136 233.387 594.048C258.88 550.056 280.427 503.36 301.12 456.56C329.387 392.912 356.587 328.952 393.387 269.464C398.08 261.872 402.987 254.384 408 247C452.267 182.416 512.534 124.28 584.107 92.664C616.747 78.312 651.307 69.472 687.574 67.184C755.307 62.92 821.12 81.848 884.694 107.328C920.427 121.68 955.414 137.904 989.227 153.816C1018.99 167.96 1048.96 182.104 1079.15 194.896C1144.32 222.456 1211.09 243.568 1282.56 242.944" stroke="#D0FCD5" stroke-miterlimit="10"/>
<path d="M-1042.99 1068.29C-994.24 958.672 -894.4 875.056 -784 834.08C-717.334 809.328 -646.72 799.24 -571.52 801.112C-562.134 801.32 -552.64 801.736 -543.254 802.36C-464.854 807.248 -385.174 822.328 -307.84 832.832C-218.987 845 -131.307 850.512 -44.1602 826.904C51.7331 800.904 127.466 751.296 188.373 680.16C205.866 659.88 221.76 637.832 236.053 614.848C263.04 571.272 285.653 524.056 306.773 476.528C335.466 411.944 362.24 346.736 399.04 286.104C403.733 278.408 408.533 270.712 413.653 263.224C457.92 197.288 519.466 137.8 592.64 107.744C626.026 94.12 661.013 86.528 697.6 85.488C765.76 83.512 831.786 104.624 896.426 129.896C932.8 144.144 968.64 159.328 1003.09 173.888C1033.49 186.68 1063.89 199.16 1094.51 210.08C1160.32 233.584 1226.77 250.016 1297.6 245.96" stroke="#D0FCD5" stroke-miterlimit="10"/>
<path d="M-1045.12 1062.05C-995.2 953.368 -892.267 873.704 -783.467 839.176C-717.653 818.376 -649.6 812.76 -575.147 816.4C-565.867 816.92 -556.48 817.44 -547.093 818.168C-469.227 823.992 -389.44 836.68 -312.853 844.48C-224.96 853.632 -138.24 855.712 -51.2 833.248C46.1867 808.08 123.733 767.104 188.16 699.192C206.613 679.848 223.467 658.32 238.613 635.544C267.093 592.384 290.773 544.648 312.213 496.496C341.44 430.976 367.68 364.52 404.373 302.64C409.067 294.736 413.867 286.936 418.987 279.24C463.36 211.952 525.973 151.112 600.853 122.512C634.987 109.512 670.4 103.168 707.307 103.48C775.787 103.792 842.133 127.192 907.84 152.152C944.96 166.192 981.547 180.544 1016.75 193.648C1047.79 205.192 1078.72 216.008 1109.55 225.056C1176 244.608 1242.13 256.36 1312.43 248.768" stroke="#D0FCD5" stroke-miterlimit="10"/>
<path d="M-1047.36 1055.7C-996.267 947.96 -890.24 872.248 -782.933 844.272C-718.08 827.424 -652.373 826.384 -578.667 831.688C-569.387 832.416 -560.107 833.144 -550.827 833.976C-473.493 840.736 -393.6 851.032 -317.76 856.232C-230.827 862.472 -144.96 861.12 -58.1334 839.8C40.8533 815.464 120.107 782.912 188.053 718.432C207.573 700.024 225.387 679.016 241.28 656.448C271.36 613.808 296.107 565.448 317.867 516.672C347.52 450.32 373.44 382.408 409.92 319.384C414.613 311.376 419.413 303.368 424.533 295.568C468.907 226.928 532.693 164.736 609.28 137.696C644.267 125.424 680.107 120.328 717.227 121.888C786.133 124.488 852.693 150.072 919.36 174.824C957.12 188.76 994.453 202.176 1030.51 213.72C1062.08 224.016 1093.65 233.064 1124.8 240.344C1191.89 255.944 1257.71 263.016 1327.36 251.888" stroke="#D0FCD5" stroke-miterlimit="10"/>
<path d="M-1049.49 1049.46C-997.227 942.656 -888.213 870.896 -782.4 849.368C-718.4 836.368 -655.253 839.904 -582.187 846.976C-573.013 847.912 -563.84 848.848 -554.56 849.784C-477.76 857.48 -397.76 865.384 -322.667 867.88C-236.587 871.104 -151.787 866.424 -64.9599 846.144C35.5201 822.64 116.587 798.616 187.947 737.568C208.427 719.992 227.2 699.608 243.947 677.248C275.52 635.024 301.333 586.144 323.413 536.744C353.6 469.456 378.987 400.296 415.36 336.024C419.947 327.808 424.853 319.696 429.973 311.688C474.347 241.696 539.414 178.152 617.494 152.568C653.227 140.92 689.493 137.28 726.933 139.88C796.267 144.872 862.933 172.536 930.773 197.08C969.173 210.912 1007.36 223.392 1044.05 233.48C1076.27 242.424 1108.37 249.912 1139.73 255.216C1207.36 266.76 1272.96 269.256 1341.97 254.592" stroke="#D0FCD5" stroke-miterlimit="10"/>
<path d="M-1051.63 1043.12C-998.187 937.248 -886.08 869.44 -781.76 854.464C-718.613 845.416 -658.027 853.424 -585.707 862.264C-576.64 863.408 -567.467 864.448 -558.293 865.488C-481.92 874.12 -401.92 879.528 -327.573 879.528C-242.453 879.84 -158.613 871.832 -71.8932 852.592C30.1868 830.024 113.067 814.424 187.84 756.704C209.387 740.064 229.12 720.2 246.72 697.944C279.787 656.24 306.667 606.736 329.173 556.608C359.893 488.384 384.747 417.976 421.013 352.56C425.6 344.24 430.507 335.92 435.52 327.808C479.893 256.464 546.133 191.568 625.92 167.544C662.4 156.624 699.093 154.128 736.853 158.08C806.507 165.36 873.494 195.208 942.4 219.544C981.44 233.272 1020.48 244.712 1057.92 253.344C1090.77 261.04 1123.41 266.76 1155.09 270.296C1223.36 277.888 1288.64 275.704 1357.12 257.4" stroke="#D0FCD5" stroke-miterlimit="10"/>
<path d="M-1053.87 1036.88C-999.253 932.048 -884.053 867.984 -781.227 859.56C-719.04 854.464 -660.907 866.944 -589.227 877.552C-580.267 878.904 -571.093 880.152 -561.92 881.296C-486.08 890.968 -406.08 893.776 -332.373 891.176C-248.213 888.264 -165.227 877.136 -78.72 859.04C24.96 837.304 109.547 830.336 187.733 775.84C210.24 760.136 230.933 740.688 249.387 718.744C283.947 677.456 311.893 627.432 334.72 576.68C365.867 507.52 390.293 435.864 426.453 369.2C431.04 360.672 435.947 352.248 440.96 343.928C485.333 271.232 552.853 204.984 634.24 182.416C671.467 172.12 708.693 170.976 746.56 176.176C816.64 185.744 883.84 217.776 953.707 241.904C993.387 255.528 1033.17 266.032 1071.47 273.208C1104.96 279.552 1138.03 283.712 1170.03 285.376C1238.93 289.016 1303.89 282.048 1371.73 260.312" stroke="#D0FCD5" stroke-miterlimit="10"/>
<path d="M-1056 1030.64C-1000.21 926.64 -882.027 866.632 -780.693 864.656C-719.36 863.512 -663.787 880.464 -592.853 892.84C-583.893 894.4 -574.933 895.856 -565.76 897.104C-490.453 907.712 -410.347 908.024 -337.387 902.928C-254.187 897.104 -172.053 882.648 -85.76 865.488C19.4134 844.688 105.92 846.144 187.52 795.08C211.093 780.312 232.747 761.384 251.947 739.648C288 698.776 317.013 648.232 340.267 596.856C371.947 526.76 395.84 453.752 431.893 385.944C436.48 377.312 441.28 368.68 446.4 360.256C490.773 286.208 559.467 218.608 642.453 197.496C680.533 187.928 718.08 188.032 756.267 194.48C826.773 206.44 894.187 240.552 965.12 264.472C1005.55 277.992 1046.08 287.56 1085.01 293.176C1119.15 298.272 1152.75 300.664 1185.07 300.456C1254.61 300.144 1319.25 288.496 1386.56 263.224" stroke="#D0FCD5" stroke-miterlimit="10"/>
<path d="M-1058.24 1024.3C-1001.17 921.336 -880 865.176 -780.16 869.752C-719.787 872.56 -666.667 893.984 -596.373 908.128C-587.52 909.896 -578.56 911.56 -569.493 912.912C-494.72 924.456 -414.507 922.376 -342.187 914.576C-259.84 905.736 -178.773 887.952 -92.5866 871.936C14.1867 851.968 102.507 861.952 187.52 814.216C212.053 800.384 234.667 781.976 254.827 760.344C292.373 719.992 322.56 668.824 346.027 616.824C378.133 545.792 401.707 471.536 437.653 402.584C442.24 393.744 447.04 385.008 452.16 376.376C496.533 300.976 566.507 232.024 651.093 212.472C689.92 203.528 727.893 204.984 766.4 212.68C837.227 226.928 904.96 263.224 976.96 286.936C1018.03 300.352 1059.41 308.88 1099.09 313.144C1133.87 316.992 1168 317.616 1200.53 315.64C1270.72 311.272 1335.04 295.048 1401.71 266.24" stroke="#D0FCD5" stroke-miterlimit="10"/>
<path d="M-1060.37 1018.06C-1002.13 916.032 -877.867 863.824 -779.52 874.848C-720 881.608 -669.333 907.608 -599.787 923.416C-591.04 925.392 -582.08 927.16 -573.12 928.72C-498.88 941.2 -418.56 936.728 -346.987 926.328C-265.6 914.472 -185.387 893.464 -99.3068 878.384C9.06652 859.352 99.0931 877.864 187.52 833.352C213.12 820.456 236.586 802.568 257.6 781.144C296.64 741.208 327.893 689.52 351.786 636.792C384.426 564.928 407.466 489.32 443.306 419.12C447.893 410.176 452.693 401.232 457.813 392.496C502.186 315.64 573.333 245.44 659.626 227.344C699.2 219.128 737.706 221.728 776.426 230.776C847.68 247.312 915.626 285.792 988.586 309.296C1030.29 322.608 1072.43 330.2 1112.96 332.904C1148.27 335.4 1183.04 334.464 1215.89 330.616C1286.72 322.296 1350.72 301.392 1416.75 269.048" stroke="#D0FCD5" stroke-miterlimit="10"/>
<path d="M-1062.51 1011.71C-1003.09 910.624 -875.733 862.368 -778.987 879.944C-720.427 890.656 -672.213 921.128 -603.413 938.704C-594.773 940.992 -585.92 942.864 -576.96 944.528C-503.147 957.944 -422.933 951.08 -352 938.08C-271.573 923.312 -192.32 898.976 -106.347 884.936C3.6267 866.944 95.4666 893.776 187.307 852.696C213.867 840.736 238.4 823.368 260.16 802.152C300.693 762.632 333.013 710.424 357.227 657.072C390.4 584.272 412.907 507.312 448.64 435.968C453.227 426.816 458.027 417.768 463.04 408.928C507.52 330.72 579.84 259.168 667.733 242.632C708.053 235.144 746.987 238.992 786.027 249.184C857.6 268.008 925.867 308.776 999.893 331.968C1042.24 345.176 1085.23 351.832 1126.4 353.08C1162.35 354.328 1197.65 351.624 1230.72 345.904C1302.08 333.632 1365.87 308.048 1431.36 272.168" stroke="#D0FCD5" stroke-miterlimit="10"/>
<path d="M-1064.75 1005.47C-1004.16 905.32 -873.813 860.912 -778.453 885.04C-720.747 899.704 -675.093 934.648 -606.933 953.992C-598.293 956.488 -589.547 958.568 -580.693 960.336C-507.413 974.792 -427.093 965.328 -356.907 949.728C-277.44 931.944 -199.04 904.488 -113.28 891.384C-1.70665 874.328 91.9468 909.688 187.093 871.832C214.72 860.808 240.107 843.96 262.827 822.848C304.853 783.848 338.24 731.016 362.88 677.04C396.48 603.304 418.56 525.096 454.187 452.608C458.773 443.352 463.573 434.096 468.587 425.048C513.067 345.488 586.56 272.584 676.053 257.504C717.227 250.64 756.587 255.84 795.84 267.28C867.84 288.392 936.32 331.344 1011.41 354.224C1054.4 367.328 1098.24 372.944 1140.16 372.736C1176.75 372.632 1212.48 368.368 1245.97 360.776C1317.97 344.448 1381.44 314.184 1446.29 274.768" stroke="#D0FCD5" stroke-miterlimit="10"/>
<path d="M-1066.88 999.232C-1005.12 900.016 -871.68 859.56 -777.813 890.24C-720.96 908.856 -677.867 948.272 -610.453 969.28C-601.92 971.984 -593.28 974.272 -584.427 976.04C-511.68 991.432 -431.253 979.576 -361.813 961.376C-283.2 940.68 -205.76 909.896 -120.213 897.728C-7.03983 881.712 88.3202 925.496 186.987 890.864C215.574 880.88 242.027 864.448 265.494 843.544C309.014 804.96 343.574 751.608 368.427 697.008C402.56 622.336 424.107 542.88 459.627 469.144C464.214 459.68 468.907 450.32 474.027 441.168C518.507 360.256 593.28 286 684.374 272.48C726.294 266.344 766.08 272.688 805.654 285.48C878.08 308.88 946.667 354.016 1022.83 376.688C1066.45 389.688 1111.04 394.368 1153.81 392.704C1191.04 391.352 1227.31 385.32 1261.01 375.96C1333.65 355.68 1396.8 320.736 1461.12 277.784" stroke="#D0FCD5" stroke-miterlimit="10"/>
<path d="M-1069.01 992.888C-1006.08 894.608 -869.547 858.104 -777.28 895.232C-721.386 917.8 -680.747 961.688 -613.973 984.464C-605.547 987.376 -596.907 989.768 -588.16 991.744C-515.947 1008.07 -435.413 993.824 -366.72 972.92C-289.067 949.312 -212.48 915.2 -127.146 904.072C-12.3731 888.992 84.8002 941.2 186.88 910C216.534 900.952 243.84 885.04 268.16 864.344C313.174 826.176 348.8 772.304 374.08 716.976C408.64 641.368 429.867 560.664 465.174 485.68C469.654 476.112 474.454 466.544 479.574 457.184C524.054 374.92 600 299.312 692.8 287.248C735.467 281.736 775.787 289.328 815.574 303.472C888.427 328.952 957.227 376.48 1034.45 398.944C1078.83 411.84 1124.16 415.584 1167.57 412.36C1205.44 409.76 1242.24 402.064 1276.27 390.728C1349.55 366.496 1412.37 326.872 1476.05 280.384" stroke="#D0FCD5" stroke-miterlimit="10"/>
<path d="M-1071.25 986.648C-1007.15 889.408 -867.627 856.752 -776.747 900.432C-721.707 926.952 -683.627 975.416 -617.493 999.856C-609.067 1002.98 -600.533 1005.58 -591.893 1007.66C-520.213 1024.92 -439.573 1008.28 -371.627 984.776C-294.933 958.152 -219.307 920.92 -133.973 910.624C-17.6 896.584 81.4933 957.424 186.773 929.24C217.493 921.128 245.653 905.632 270.827 885.248C317.227 847.496 354.027 793.104 379.627 737.152C414.72 660.608 435.413 578.552 470.72 502.424C475.2 492.648 480 482.976 485.12 473.512C529.6 389.896 606.827 312.936 701.227 302.328C744.747 297.544 785.387 306.384 825.493 321.776C898.773 349.544 967.787 399.256 1046.08 421.512C1091.09 434.304 1137.28 437.008 1181.44 432.432C1219.95 428.48 1257.28 419.12 1291.52 406.016C1365.44 377.728 1427.95 333.528 1490.99 283.504" stroke="#D0FCD5" stroke-miterlimit="10"/>
<path d="M-1073.39 980.304C-1008.11 884 -865.493 855.296 -776.107 905.424C-722.027 935.896 -686.293 988.832 -621.013 1015.04C-612.693 1018.37 -604.267 1021.18 -595.627 1023.36C-524.48 1041.56 -443.733 1022.63 -376.533 996.32C-300.693 966.888 -226.027 926.328 -140.907 916.968C-22.9334 903.968 77.8666 973.232 186.667 948.272C218.347 941.096 247.467 926.12 273.6 905.84C321.493 868.504 359.36 813.592 385.387 757.016C421.013 679.64 441.173 596.232 476.373 518.96C480.853 509.08 485.653 499.2 490.667 489.528C535.147 404.56 613.547 326.248 709.547 317.2C753.813 313.04 794.88 323.232 835.307 339.768C908.907 369.824 978.24 421.72 1057.49 443.768C1103.15 456.456 1150.08 458.224 1195.09 452.088C1234.13 446.888 1272.11 435.76 1306.67 420.888C1381.23 388.648 1443.41 339.768 1505.92 286.208" stroke="#D0FCD5" stroke-miterlimit="10"/>
<path d="M-1075.63 974.064C-1009.07 878.696 -863.467 853.84 -775.68 910.52C-722.453 944.944 -689.28 1002.35 -624.64 1030.33C-616.427 1033.86 -608 1036.88 -599.467 1039.17C-528.747 1058.41 -448 1036.98 -381.547 1008.07C-306.667 975.728 -232.853 931.944 -147.947 923.52C-28.3732 911.664 74.2401 989.144 186.347 967.616C219.093 961.376 249.173 946.92 276.053 926.848C325.44 889.928 364.48 834.496 390.72 777.296C426.773 698.984 446.507 614.328 481.6 535.808C486.08 525.72 490.88 515.736 495.894 505.96C540.374 419.64 620.053 339.976 717.653 332.384C762.667 328.952 804.267 340.288 844.907 358.176C918.934 390.52 988.48 444.6 1068.8 466.44C1115.09 479.024 1162.88 479.856 1208.53 472.264C1248.21 465.712 1286.61 453.024 1321.49 436.176C1396.69 399.984 1458.56 346.424 1520.43 289.224" stroke="#D0FCD5" stroke-miterlimit="10"/>
<path d="M-1077.76 967.824C-1010.03 873.392 -861.44 852.488 -775.04 915.72C-722.667 954.096 -692.053 1015.98 -628.16 1045.72C-620.053 1049.57 -611.627 1052.58 -603.2 1055.08C-533.013 1075.26 -452.16 1051.44 -386.453 1019.82C-312.427 984.464 -239.68 937.56 -154.88 929.968C-33.7067 919.152 70.6133 1005.06 186.24 986.752C219.947 981.448 250.987 967.408 278.72 947.648C329.6 911.144 369.707 855.192 396.373 797.264C432.96 718.016 452.16 632.112 487.147 552.344C491.627 542.152 496.32 531.96 501.44 521.976C545.92 434.304 626.773 353.288 726.08 347.256C771.84 344.448 813.867 357.136 854.827 376.272C929.28 410.904 999.04 467.168 1080.43 488.8C1127.36 501.28 1176 501.072 1222.4 492.024C1262.72 484.224 1301.65 469.768 1336.85 451.152C1412.59 411.008 1474.24 352.664 1535.57 292.032" stroke="#D0FCD5" stroke-miterlimit="10"/>
<path d="M-1079.89 961.48C-1010.99 867.984 -859.307 851.032 -774.4 920.712C-722.987 962.936 -694.827 1029.39 -631.573 1060.9C-623.467 1064.96 -615.253 1068.18 -606.827 1070.78C-537.173 1091.9 -456.213 1065.69 -391.253 1031.47C-318.187 993.2 -246.293 943.072 -161.707 936.416C-39.0402 926.744 67.1998 1020.86 186.24 1005.89C221.013 1001.52 252.907 988 281.6 968.344C333.867 932.256 375.147 875.784 402.133 817.232C439.147 737.048 458.027 649.792 492.8 568.984C497.28 558.584 501.973 548.288 507.093 538.2C551.68 449.176 633.706 366.808 734.613 362.232C781.226 360.152 823.573 374.088 864.853 394.472C939.733 431.392 1009.71 489.84 1092.05 511.264C1139.73 523.64 1189.01 522.496 1236.27 511.992C1277.23 502.944 1316.69 486.824 1352.11 466.336C1428.48 422.136 1489.81 359.216 1550.51 295.048" stroke="#D0FCD5" stroke-miterlimit="10"/>
<path d="M-1082.13 955.24C-1012.05 862.68 -857.28 849.68 -773.973 925.912C-723.413 972.088 -697.813 1043.12 -635.2 1076.3C-627.2 1080.56 -618.987 1083.99 -610.56 1086.7C-541.44 1108.74 -460.48 1080.14 -396.16 1043.22C-324.053 1001.94 -253.013 948.792 -168.533 942.864C-44.16 934.544 63.7866 1036.78 186.133 1025.02C221.867 1021.59 254.827 1008.59 284.267 989.144C338.027 953.576 380.373 896.48 407.787 837.304C445.333 756.184 463.68 667.68 498.347 585.624C502.827 575.12 507.52 564.616 512.64 554.424C557.227 463.944 640.427 380.328 742.933 377.312C790.293 375.96 833.173 391.04 874.667 412.776C949.867 451.984 1020.16 512.72 1103.57 533.832C1151.89 546.104 1202.03 544.024 1250.03 531.96C1291.63 521.56 1331.63 503.776 1367.36 481.416C1444.37 433.264 1505.39 365.664 1565.44 297.96" stroke="#D0FCD5" stroke-miterlimit="10"/>
<path d="M-1084.27 948.896C-1013.01 857.272 -855.147 848.224 -773.333 930.904C-723.733 981.032 -700.48 1056.54 -638.72 1091.48C-565.653 1132.77 -472.32 1099.07 -401.173 1054.77C-329.92 1010.57 -259.947 954.096 -175.573 949.208C-49.7067 941.824 60.0533 1052.48 185.92 1044.16C289.813 1037.3 370.347 949.832 413.333 857.376C456.32 764.92 473.493 662.376 518.08 570.544C562.667 478.712 647.147 393.744 751.253 392.184C886.507 390.208 983.893 523.64 1114.99 556.088C1206.4 578.656 1304.75 548.496 1382.4 496.392C1460.05 444.288 1520.75 372.008 1580.27 300.768" stroke="#D0FCD5" stroke-miterlimit="10"/>
<path d="M-1083.63 940.472C-1010.77 849.576 -853.547 840.112 -769.6 920.92C-735.147 954.096 -712.427 998.816 -682.347 1035.63C-668.053 1053.1 -652.053 1068.81 -632.213 1080.46C-616.107 1089.92 -599.04 1095.74 -581.333 1098.66C-519.147 1108.85 -449.813 1082.33 -393.6 1048.74C-385.813 1044.06 -378.133 1039.27 -370.347 1034.49C-306.027 994.136 -241.6 948.896 -166.08 943.384C-69.9733 936.624 17.4934 997.256 109.227 1023.78C136.64 1031.68 164.373 1036.57 192.96 1035.53C295.147 1031.68 374.293 952.536 418.667 866.32C429.013 846.456 437.973 825.864 446.507 804.96C474.667 735.176 495.04 660.4 530.133 590.824C543.253 564.616 559.573 538.928 578.347 515.424C624.533 457.704 686.507 413.712 758.08 409.864C795.733 407.888 830.293 416.624 863.68 430.664C946.453 465.296 1021.55 533 1113.6 552.448C1203.52 571.48 1300.59 540.8 1378.24 489.84C1455.89 438.88 1517.55 369.408 1578.13 301.704" stroke="#D0FCD5" stroke-miterlimit="10"/>
<path d="M-1082.88 931.944C-1008.32 841.672 -851.733 832 -765.867 910.936C-730.56 943.384 -706.56 987.272 -676.053 1024.09C-661.547 1041.56 -645.547 1057.47 -625.813 1069.33C-609.813 1079 -592.853 1085.24 -575.147 1088.57C-512.96 1100.32 -443.2 1075.15 -386.027 1042.5C-378.133 1038.02 -370.24 1033.34 -362.453 1028.56C-297.28 989.04 -232.427 943.8 -156.693 937.352C-61.44 929.344 26.2402 986.544 117.227 1013.58C144.427 1021.7 171.733 1027 199.787 1026.79C300.267 1026.06 377.92 955.136 423.893 875.264C434.56 856.856 444.16 837.72 453.227 817.96C483.413 752.232 506.133 679.536 541.973 610.896C555.413 585.104 571.627 559.624 590.187 536.224C635.733 478.712 695.68 433.992 764.693 427.44C800.96 424.008 834.453 430.872 866.88 442.728C947.2 472.056 1021.33 532.896 1111.89 548.704C1200.43 564.2 1296.21 532.896 1373.76 483.08C1451.31 433.264 1514.03 366.6 1575.79 302.536" stroke="#D0FCD5" stroke-miterlimit="10"/>
<path d="M-1082.24 923.416C-1006.08 833.872 -850.027 823.888 -762.133 900.848C-725.973 932.464 -700.693 975.52 -669.653 1012.44C-654.933 1029.91 -638.933 1045.93 -619.307 1058.2C-603.413 1068.08 -586.453 1074.74 -568.853 1078.48C-506.773 1091.79 -436.373 1068.08 -378.347 1036.26C-370.347 1031.89 -362.347 1027.31 -354.453 1022.63C-288.427 983.944 -223.04 938.808 -147.093 931.424C-52.6932 922.272 35.2 975.936 125.44 1003.39C152.32 1011.61 179.413 1017.33 206.933 1018.06C305.707 1020.45 381.76 957.632 429.333 884.208C440.32 867.256 450.453 849.576 460.267 831.064C492.48 769.496 517.653 698.88 554.24 631.176C568 605.8 584.213 580.528 602.453 557.232C647.36 500.032 705.173 454.48 771.733 445.12C806.72 440.336 839.04 445.224 870.507 454.896C948.48 478.92 1021.55 532.896 1110.72 544.96C1197.87 556.816 1292.37 525.096 1369.92 476.424C1447.47 427.856 1511.15 364 1573.97 303.472" stroke="#D0FCD5" stroke-miterlimit="10"/>
<path d="M-1081.49 914.888C-1003.73 826.072 -848.213 815.672 -758.4 890.76C-721.28 921.648 -694.827 963.872 -663.36 1000.79C-648.533 1018.26 -632.427 1034.49 -612.907 1047.07C-597.12 1057.26 -580.267 1064.23 -562.773 1068.39C-500.693 1083.26 -429.76 1061.01 -370.88 1030.12C-362.773 1025.86 -354.667 1021.38 -346.667 1016.81C-279.787 978.952 -213.973 933.92 -137.813 925.496C-44.2666 915.2 43.9468 965.328 133.333 993.2C160 1001.52 186.667 1007.76 213.653 1009.22C310.72 1014.73 385.173 960.024 434.453 893.048C445.867 877.552 456.533 861.328 466.88 843.96C501.333 786.552 528.64 717.912 565.973 651.248C579.947 626.184 596.267 601.224 614.294 577.928C658.454 520.936 714.24 474.656 778.347 462.592C812.053 456.352 843.2 459.472 873.707 466.96C949.333 485.576 1021.23 532.792 1109.01 541.112C1194.67 549.432 1288 517.088 1365.44 469.664C1442.99 422.24 1507.73 361.192 1571.52 304.2" stroke="#D0FCD5" stroke-miterlimit="10"/>
<path d="M-1080.85 906.36C-1001.49 818.168 -846.507 807.56 -754.667 880.672C-716.693 910.728 -688.96 952.12 -657.067 989.144C-642.027 1006.62 -625.92 1023.05 -606.507 1035.84C-590.827 1046.24 -574.08 1053.73 -556.587 1058.2C-494.507 1074.53 -423.147 1053.83 -363.307 1023.78C-355.093 1019.62 -346.88 1015.25 -338.773 1010.88C-271.04 973.856 -204.693 928.928 -128.32 919.464C-35.5199 908.024 52.8001 954.616 141.44 982.904C167.893 991.328 194.134 998.088 220.694 1000.38C316.054 1009.01 389.013 962.416 439.787 901.888C451.52 887.848 462.827 872.976 473.813 856.96C510.293 803.608 539.947 737.048 578.134 671.424C592.427 646.776 608.747 622.024 626.453 598.832C669.973 542.048 723.627 494.832 785.28 480.168C817.6 472.472 847.68 473.72 877.227 479.024C950.614 492.232 1021.33 532.688 1107.73 537.368C1192 542.152 1284.05 509.288 1361.49 463.008C1438.93 416.728 1504.75 358.488 1569.6 305.136" stroke="#D0FCD5" stroke-miterlimit="10"/>
<path d="M-1080.11 897.936C-999.147 810.472 -844.693 799.552 -750.933 870.792C-712.107 900.12 -683.093 940.68 -650.667 977.704C-635.413 995.176 -619.307 1011.71 -600 1024.92C-584.32 1035.63 -567.787 1043.43 -550.293 1048.42C-488.213 1066.31 -416.32 1047.07 -355.733 1017.85C-347.413 1013.79 -339.093 1009.63 -330.88 1005.26C-262.293 969.072 -195.52 924.248 -118.827 913.744C-26.88 901.16 61.6533 944.216 149.547 973.024C175.68 981.552 201.6 988.728 227.733 991.952C321.387 1003.6 392.853 965.224 445.227 911.144C457.387 898.56 469.12 885.144 480.747 870.272C519.36 821.08 551.253 756.6 590.187 691.808C604.8 667.576 621.013 643.032 638.507 619.944C681.387 563.368 732.907 515.424 792.107 498.056C823.147 489.008 852.053 488.28 880.64 491.4C951.68 499.2 1021.33 532.896 1106.35 533.832C1189.23 534.976 1279.89 501.592 1357.33 456.56C1434.77 411.528 1501.55 356.096 1567.57 306.176" stroke="#D0FCD5" stroke-miterlimit="10"/>
<path d="M-1079.47 889.408C-996.8 802.568 -842.987 791.44 -747.2 860.704C-707.52 889.304 -677.227 928.928 -644.373 966.056C-628.907 983.528 -612.8 1000.27 -593.6 1013.79C-578.027 1024.71 -561.6 1032.93 -544.213 1038.34C-482.24 1057.78 -409.707 1039.9 -348.267 1011.61C-339.84 1007.76 -331.413 1003.6 -323.093 999.336C-253.653 963.976 -186.347 919.256 -109.547 907.712C-18.4532 894.088 70.2935 933.504 157.44 962.728C183.36 971.464 208.853 979.056 234.453 983.112C326.4 997.88 396.48 967.616 450.24 919.984C462.72 908.96 474.987 896.896 487.253 883.272C527.893 838.136 562.133 775.736 601.92 711.984C616.747 688.064 633.067 663.832 650.24 640.744C692.374 584.376 741.867 535.704 798.613 515.632C828.267 505.128 856.107 502.528 883.627 503.464C952.427 505.856 1020.91 532.792 1104.43 530.088C1185.81 527.696 1275.31 493.792 1352.64 449.904C1430.08 406.016 1497.81 353.392 1564.91 307.112" stroke="#D0FCD5" stroke-miterlimit="10"/>
<path d="M-1078.72 880.88C-994.453 794.768 -841.173 783.224 -743.467 850.616C-702.933 878.384 -671.36 917.28 -638.08 954.408C-622.4 971.88 -606.293 988.728 -587.2 1002.56C-571.733 1013.69 -555.413 1022.32 -538.027 1028.14C-476.053 1048.94 -402.987 1032.72 -340.693 1005.37C-332.16 1001.62 -323.627 997.568 -315.093 993.408C-244.8 958.984 -177.067 914.264 -99.9467 901.68C-9.70666 886.912 79.2533 922.792 165.653 952.432C191.36 961.272 216.427 969.28 241.6 974.272C331.84 992.16 400.427 970.008 455.68 928.824C468.587 919.256 481.387 908.544 494.293 896.168C536.96 855.192 573.653 794.768 614.08 732.056C629.227 708.552 645.547 684.528 662.507 661.544C704 605.384 751.36 555.88 805.653 533.104C834.027 521.144 860.693 516.672 887.253 515.528C953.813 512.512 1021.12 532.688 1103.25 526.24C1183.25 520.208 1271.47 485.784 1348.8 443.04C1426.13 400.296 1495.04 350.48 1563.09 307.84" stroke="#D0FCD5" stroke-miterlimit="10"/>
<path d="M-1078.08 872.352C-992.213 786.968 -839.573 775.112 -739.733 840.528C-698.347 867.568 -665.493 905.528 -631.68 942.76C-615.893 960.232 -599.68 977.288 -580.693 991.432C-565.333 1002.87 -549.12 1011.82 -531.733 1018.06C-469.76 1040.42 -396.266 1025.65 -333.013 999.128C-324.373 995.488 -315.733 991.536 -307.093 987.584C-236.053 953.992 -167.786 909.48 -90.3464 895.752C-0.85311 879.944 88.2136 912.08 173.867 942.24C199.254 951.184 224 959.712 248.747 965.536C337.28 986.544 404.48 972.608 461.227 937.768C474.454 929.656 487.787 920.4 501.334 909.272C546.134 872.352 585.067 814.112 626.24 752.336C641.707 729.248 658.027 705.328 674.667 682.552C715.52 626.6 760.747 576.368 812.587 550.888C839.68 537.576 865.174 531.128 890.774 527.8C954.987 519.272 1021.23 532.792 1101.87 522.704C1180.48 513.136 1267.41 478.088 1344.64 436.592C1421.97 394.992 1491.84 347.984 1561.07 308.88" stroke="#D0FCD5" stroke-miterlimit="10"/>
<path d="M-1077.33 863.928C-989.867 779.168 -837.76 767.104 -736 830.544C-693.76 856.752 -659.627 893.984 -625.387 931.216C-609.387 948.688 -593.173 965.952 -574.293 980.408C-559.04 992.056 -542.933 1001.42 -525.653 1008.07C-463.68 1031.99 -389.653 1018.68 -325.547 992.992C-316.693 989.456 -307.947 985.712 -299.307 981.76C-227.413 949 -158.613 904.592 -81.0665 889.824C7.57347 872.976 96.8535 901.472 181.76 932.152C206.934 941.2 231.36 950.248 255.467 956.904C342.293 981.032 408.107 975.208 466.24 946.816C479.893 940.16 493.76 932.36 507.947 922.376C554.773 889.512 596.053 833.352 638.08 772.512C653.76 749.736 670.08 726.128 686.507 703.456C726.613 647.712 769.814 596.752 819.2 568.464C844.907 553.696 869.333 545.376 893.973 539.864C955.947 525.928 1020.91 532.688 1100.27 518.856C1177.49 505.752 1263.15 470.184 1340.37 429.832C1417.71 389.48 1488.53 345.28 1558.83 309.712" stroke="#D0FCD5" stroke-miterlimit="10"/>
<path d="M-1076.69 855.4C-987.52 771.368 -836.053 758.888 -732.267 820.56C-689.067 846.04 -653.76 882.336 -619.093 919.672C-602.88 937.144 -586.667 954.512 -567.893 969.28C-552.747 981.24 -536.747 990.912 -519.467 997.984C-457.493 1023.36 -382.933 1011.61 -317.973 986.752C-309.013 983.32 -300.16 979.68 -291.413 975.832C-218.667 943.904 -149.44 899.704 -71.5734 883.792C16.2132 865.904 105.707 890.76 189.867 921.856C214.827 931.008 238.827 940.472 262.507 948.064C347.627 975.312 412.053 977.6 471.68 955.656C485.76 950.456 500.053 944.112 514.88 935.376C563.733 906.672 607.36 852.488 650.133 792.688C666.133 770.328 682.453 746.928 698.56 724.256C738.027 668.72 779.093 617.032 826.027 586.04C850.453 569.92 873.707 559.624 897.387 551.928C957.12 532.48 1020.91 532.584 1098.77 515.112C1174.51 498.368 1258.88 462.28 1336.11 423.176C1413.44 383.968 1485.23 342.576 1556.59 310.648" stroke="#D0FCD5" stroke-miterlimit="10"/>
<path d="M-1076.05 846.872C-985.28 763.464 -834.347 750.776 -728.64 810.472C-684.587 835.224 -648 870.688 -612.8 908.024C-596.373 925.496 -580.16 943.072 -561.493 958.152C-546.453 970.32 -530.56 980.408 -513.28 988C-451.307 1014.94 -376.32 1004.54 -310.507 980.616C-301.44 977.288 -292.48 973.752 -283.627 970.008C-210.027 938.912 -140.267 894.92 -62.1867 877.968C24.8533 859.04 114.56 880.256 197.867 911.768C222.507 921.128 246.187 931.008 269.333 939.432C352.64 969.696 415.787 980.304 476.8 964.704C491.307 960.96 506.027 955.968 521.6 948.48C572.48 923.832 618.453 871.832 662.08 812.968C678.293 790.92 694.72 767.832 710.613 745.264C749.44 690.04 788.373 637.52 832.853 603.824C855.893 586.248 878.187 574.08 900.8 564.304C958.293 539.344 1020.91 532.792 1097.39 511.576C1171.73 491.296 1254.83 454.688 1332.05 416.728C1409.28 378.664 1482.24 340.08 1554.56 311.688" stroke="#D0FCD5" stroke-miterlimit="10"/>
<path d="M-1075.31 838.344C-982.933 755.664 -832.533 742.664 -724.8 800.384C-679.893 824.304 -642.027 858.936 -606.4 896.272C-589.76 913.744 -573.547 931.424 -554.987 946.816C-540.053 959.296 -524.267 969.8 -507.093 977.704C-445.227 1006.3 -369.6 997.256 -302.933 974.272C-293.76 971.152 -284.693 967.616 -275.733 963.976C-201.28 933.712 -131.093 889.928 -52.8 871.832C33.3867 851.864 123.307 869.44 205.867 901.472C230.293 910.936 253.547 921.336 276.267 930.592C357.867 963.976 419.627 982.8 482.133 973.44C496.96 971.256 512.32 967.616 528.427 961.376C581.333 940.784 629.76 890.864 674.027 833.04C690.56 811.408 706.987 788.528 722.56 766.064C760.64 711.048 797.653 657.8 839.573 621.296C861.333 602.368 882.453 588.224 904.107 576.264C959.36 545.792 1020.8 532.584 1095.89 507.728C1168.85 483.808 1250.67 446.68 1327.79 409.864C1405.01 373.048 1478.93 337.272 1552.43 312.416" stroke="#D0FCD5" stroke-miterlimit="10"/>
<path d="M-1074.67 829.92C-980.693 747.968 -830.827 734.656 -721.173 790.4C-675.413 813.592 -636.267 847.392 -600.213 884.728C-583.467 902.096 -567.147 920.088 -548.693 935.792C-533.867 948.48 -518.187 959.4 -501.013 967.72C-439.253 997.88 -362.987 990.288 -295.467 968.136C-286.187 965.12 -277.013 961.792 -267.947 958.256C-192.64 928.824 -121.92 885.248 -43.4134 866.008C41.92 845.104 132.053 858.936 213.76 891.384C237.973 900.952 260.8 911.768 283.093 921.96C362.987 958.464 423.467 985.504 487.253 982.488C502.507 981.76 518.293 979.576 535.147 974.48C590.08 957.944 640.853 910.104 685.973 853.216C702.827 832 719.147 809.328 734.507 786.864C771.947 732.056 806.827 678.08 846.293 638.872C866.773 618.592 886.72 602.368 907.307 588.328C960.213 552.344 1020.59 532.48 1094.19 503.88C1165.65 476.424 1246.29 438.776 1323.31 403.104C1400.53 367.432 1475.41 334.464 1549.97 313.248" stroke="#D0FCD5" stroke-miterlimit="10"/>
<path d="M-1073.92 821.392C-978.347 740.064 -829.013 726.44 -717.333 780.416C-670.72 802.776 -630.293 835.744 -593.707 873.184C-576.747 890.552 -560.427 908.752 -542.08 924.768C-527.36 937.664 -511.787 949 -494.613 957.736C-432.853 989.456 -356.16 983.32 -287.68 962C-278.293 959.088 -269.013 955.864 -259.84 952.432C-183.68 923.832 -112.427 880.464 -33.8134 860.08C50.7733 838.136 141.013 848.328 221.973 881.192C245.973 890.864 268.373 902.2 290.133 913.224C368.32 952.848 427.413 988.208 492.693 991.432C508.373 992.264 524.587 991.328 542.08 987.584C599.04 975.104 652.16 929.344 698.027 873.496C715.093 852.592 731.52 830.232 746.56 807.872C783.36 753.272 816.107 698.568 853.12 656.552C872.213 634.816 891.093 616.72 910.72 600.496C961.28 558.896 1020.48 532.376 1092.8 500.136C1162.88 469.144 1242.24 430.872 1319.25 396.448C1396.37 361.92 1472.32 331.76 1547.95 314.08" stroke="#D0FCD5" stroke-miterlimit="10"/>
<path d="M-1073.28 812.864C-976 732.264 -827.307 718.328 -713.707 770.328C-666.24 791.96 -624.533 824.096 -587.52 861.536C-570.347 878.904 -554.027 897.208 -535.787 913.536C-521.173 926.744 -505.707 938.392 -488.64 947.544C-426.88 980.72 -349.653 976.04 -280.32 955.656C-270.827 952.848 -261.44 949.728 -252.16 946.4C-175.147 918.632 -103.467 875.472 -24.5333 853.944C59.2 831.064 149.653 837.512 229.867 870.792C253.547 880.568 275.627 892.424 296.96 904.28C373.44 947.024 431.147 990.704 497.813 1000.17C513.92 1002.46 530.667 1002.98 548.693 1000.38C607.68 991.952 663.147 948.376 709.867 893.464C727.253 872.976 743.68 850.824 758.4 828.568C794.453 774.176 825.173 718.744 859.733 674.024C877.547 650.936 895.253 630.76 913.92 612.56C962.24 565.448 1020.27 532.272 1091.09 496.392C1159.79 461.76 1237.76 423.072 1314.77 389.792C1391.89 356.512 1468.91 329.056 1545.6 315.016" stroke="#D0FCD5" stroke-miterlimit="10"/>
<path d="M-1072.53 804.336C-973.653 724.36 -825.493 710.216 -709.867 760.24C-661.547 781.04 -618.667 812.344 -581.12 849.888C-563.733 867.256 -547.307 885.768 -529.28 902.408C-514.773 915.824 -499.413 927.888 -482.347 937.456C-420.587 972.192 -342.827 968.968 -272.747 949.52C-263.147 946.816 -253.653 943.8 -244.267 940.576C-166.4 913.64 -94.1869 870.792 -15.0402 848.016C67.9464 824.2 158.506 826.904 237.973 860.704C261.44 870.688 283.2 882.856 303.893 895.648C378.666 941.408 434.88 993.408 503.146 1009.22C519.573 1013.06 536.853 1014.83 555.626 1013.48C616.746 1009.11 674.453 967.616 721.92 913.64C739.626 893.568 756.053 871.624 770.56 849.368C805.973 795.184 834.666 739.024 866.666 691.496C883.2 666.952 899.626 644.904 917.44 624.52C963.306 571.792 1020.37 532.064 1089.81 492.44C1157.01 454.272 1233.81 414.96 1310.83 382.928C1387.95 350.792 1465.92 326.248 1543.68 315.744" stroke="#D0FCD5" stroke-miterlimit="10"/>
<path d="M-1071.89 795.912C-971.413 716.664 -823.893 702.104 -706.24 750.256C-656.96 770.328 -612.907 800.8 -574.827 838.344C-557.227 855.712 -540.8 874.432 -522.88 891.384C-508.373 905.112 -493.227 917.592 -476.16 927.576C-414.507 963.872 -336.107 962.104 -265.173 943.488C-255.467 940.888 -245.867 938.08 -236.373 934.96C-157.76 908.856 -84.9067 866.216 -5.6534 842.296C76.4799 817.544 167.253 816.504 245.973 850.72C269.227 860.808 290.56 873.496 310.827 887.12C383.893 936 438.72 996.32 508.373 1018.37C525.227 1023.67 542.933 1026.9 562.347 1026.79C625.493 1026.48 685.653 987.064 733.76 934.128C751.68 914.368 768.107 892.736 782.4 870.584C817.173 816.608 843.84 759.824 873.28 709.488C888.533 683.592 903.787 659.568 920.64 637C964.16 578.76 1020.16 532.376 1088.21 489.112C1154.03 447.408 1229.55 407.576 1306.45 376.584C1383.47 345.592 1462.51 323.856 1541.33 316.888" stroke="#D0FCD5" stroke-miterlimit="10"/>
<path d="M-1071.15 787.384C-969.067 708.76 -822.08 693.992 -702.4 740.168C-652.267 759.512 -606.933 789.048 -568.427 826.696C-550.72 844.064 -534.187 862.888 -516.373 880.152C-501.973 894.088 -486.933 906.984 -469.973 917.384C-408.32 955.24 -329.493 954.928 -257.6 937.144C-247.787 934.752 -237.973 931.944 -228.48 928.928C-149.013 903.656 -75.6267 861.328 3.83998 836.16C85.2267 810.472 176.107 805.688 254.08 840.32C277.013 850.512 298.027 863.72 317.867 878.176C389.227 930.176 442.56 998.816 513.813 1027.1C530.987 1033.97 549.333 1038.44 569.387 1039.58C634.56 1043.22 697.067 1006.1 746.027 954.096C764.267 934.752 780.693 913.328 794.667 891.28C828.8 837.512 853.333 780 880.32 726.96C894.293 699.712 908.373 673.608 924.267 648.96C965.44 585.208 1020.37 532.168 1086.93 485.16C1151.36 439.816 1225.6 399.464 1302.4 369.72C1379.41 339.976 1459.41 320.944 1539.41 317.616" stroke="#D0FCD5" stroke-miterlimit="10"/>
<path d="M-1070.51 778.856C-966.72 700.96 -820.373 685.88 -698.667 730.184C-647.68 748.696 -601.067 777.504 -562.133 815.152C-544.213 832.52 -527.68 851.552 -509.973 869.128C-495.68 883.272 -480.747 896.584 -463.787 907.4C-402.133 946.712 -322.773 947.96 -250.027 931.008C-240.107 928.72 -230.187 926.016 -220.587 923.104C-140.267 898.664 -66.3467 856.752 13.3333 830.232C93.9733 803.712 185.066 795.08 262.186 830.128C284.906 840.424 305.493 854.048 324.8 869.336C394.453 924.456 446.293 1001.52 519.04 1035.94C536.64 1044.26 555.413 1050.19 576.106 1052.58C643.306 1060.28 708.16 1025.23 757.866 974.272C776.32 955.344 792.853 934.128 806.506 912.184C839.893 858.624 862.4 800.28 886.933 744.536C899.52 715.832 912.426 687.856 927.466 661.128C966.08 591.76 1020.16 532.168 1085.33 481.52C1148.27 432.64 1221.33 391.768 1298.13 363.168C1375.15 334.568 1456.21 318.448 1537.17 318.552" stroke="#D0FCD5" stroke-miterlimit="10"/>
<path d="M-1069.76 770.328C-920.213 660.712 -689.173 675.688 -555.733 803.504C-522.987 834.912 -495.573 872.144 -457.6 897.312C-387.52 943.8 -293.867 940.888 -212.693 917.28C-131.52 893.672 -57.0668 851.968 22.7199 824.408C102.613 796.848 193.813 784.472 270.187 820.144C393.067 877.344 448.853 1043.02 582.933 1065.9C677.973 1082.12 768.96 1014 818.56 933.296C868.16 852.592 889.493 758.472 930.773 673.504C1037.33 454.064 1286.19 308.256 1534.93 319.696" stroke="#D0FCD5" stroke-miterlimit="10"/>
</g>
<mask id="mask2_5_2" style="mask-type:luminance" maskUnits="userSpaceOnUse" x="0" y="0" width="1280" height="832">
<path d="M1280 0H0V832H1280V0Z" fill="white"/>
</mask>
<g mask="url(#mask2_5_2)">
<path d="M1398.19 429.104C1397.55 423.176 1330.24 420.888 1322.99 420.784C1297.17 420.264 1271.36 422.24 1245.97 426.4C1195.09 434.824 1146.03 452.192 1100.91 476.32C1058.56 498.888 1009.49 528.944 980.373 566.904C946.24 611.624 909.013 653.744 867.947 692.64C852.48 707.304 838.293 721.136 819.093 730.6C784.107 747.656 743.253 758.576 704 758.472C683.733 758.368 658.347 753.272 640.747 743.288C629.44 736.84 619.947 726.024 618.88 713.336C617.493 697.32 629.227 683.176 641.6 672.464C687.36 633.048 714.56 575.224 715.947 515.84C716.587 487.656 709.653 460.928 715.413 432.952C743.253 298.272 900.373 259.584 1022.19 275.912C1057.49 280.592 1093.01 289.744 1127.36 298.48C1164.59 308.048 1200.75 315.224 1237.87 323.024C1264.43 328.64 1291.52 334.256 1318.4 332.696C1345.28 331.136 1372.37 321.048 1384.75 301.704C1384.75 301.6 1398.19 429.104 1398.19 429.104Z" fill="#2A3740"/>
</g>
<mask id="mask3_5_2" style="mask-type:luminance" maskUnits="userSpaceOnUse" x="0" y="0" width="1280" height="832">
<path d="M1280 0H0V832H1280V0Z" fill="white"/>
</mask>
<g mask="url(#mask3_5_2)">
<path d="M-222.507 782.496C-189.333 733.512 -135.253 698.464 -76.16 687.44C-17.0667 676.416 46.3999 689.52 95.7866 723.112C116.8 737.36 135.893 755.352 160.32 762.736C202.667 775.424 247.147 752.648 283.307 727.584C319.467 702.624 356.587 673.4 400.853 671.424C425.28 670.384 449.173 677.872 473.493 680.264C524.053 685.256 578.133 665.184 607.147 624.52C636.16 583.856 634.773 523.016 599.147 487.76C569.493 458.328 523.307 450.528 481.28 454.896C429.547 460.304 381.12 481.416 330.88 494.416C280.64 507.416 223.787 511.576 179.413 485.16C161.813 474.656 147.2 459.992 130.56 448.032C69.2267 403.832 -20.9067 402.272 -83.84 444.288L-222.507 782.496Z" fill="#2A3740"/>
</g>
<mask id="mask4_5_2" style="mask-type:luminance" maskUnits="userSpaceOnUse" x="0" y="0" width="1280" height="832">
<path d="M1280 0H0V832H1280V0Z" fill="white"/>
</mask>
<g mask="url(#mask4_5_2)">
<path d="M-106.773 711.88C-58.7734 596.44 71.68 515.944 203.093 520.728C308.373 524.576 413.973 577.2 514.667 547.352C588.16 525.512 640.533 463.632 675.52 398.944C710.507 334.256 732.907 263.744 772.48 201.448C812.053 139.152 874.56 83.512 951.147 75.92C1015.89 69.576 1078.08 98.384 1134.72 128.336C1191.36 158.288 1249.81 191.048 1314.77 193.752" stroke="#283640" stroke-miterlimit="10"/>
<path d="M-108.053 708.032C-78.7201 639.912 -19.0934 585.936 49.8133 556.608C91.5199 538.928 136.533 529.984 183.253 529.984C189.12 529.984 194.987 530.192 200.853 530.4C249.493 532.792 298.56 543.608 346.667 551.72C402.027 560.976 456.64 566.592 510.4 551.304C568.533 534.976 614.08 498.888 649.6 453.024C659.733 439.92 668.907 425.984 677.227 411.84C693.013 384.696 706.24 355.888 719.04 327.08C736.427 287.872 753.173 248.456 775.893 211.848C778.773 207.168 781.76 202.592 784.96 197.912C812.267 158.08 849.387 122.304 893.547 102.856C913.6 94.016 934.933 88.608 957.227 87.152C998.933 84.552 1039.57 96.2 1078.83 111.904C1100.91 120.744 1122.35 130.728 1143.15 140.608C1161.49 149.344 1179.95 158.08 1198.61 165.88C1238.83 182.832 1279.89 195.832 1323.95 195.52" stroke="#263D47" stroke-miterlimit="10"/>
<path d="M-109.44 704.184C-79.4667 636.584 -17.8134 585.104 50.1333 559.832C91.2 544.544 134.72 538.408 181.12 539.552C186.88 539.656 192.747 539.968 198.507 540.28C246.827 543.296 295.893 552.552 343.573 559C398.293 566.488 452.373 569.816 506.133 555.36C565.227 539.344 611.84 508.768 649.493 464.88C660.267 452.4 670.08 438.776 678.827 424.632C695.467 397.8 709.44 368.576 722.453 339.352C740.16 299.624 756.693 259.376 779.307 222.04C782.187 217.256 785.173 212.576 788.373 207.896C815.68 167.232 853.547 130.624 898.667 112.112C919.253 103.688 940.8 99.008 963.307 98.384C1005.33 97.136 1045.97 110.24 1085.87 125.84C1108.27 134.576 1130.35 144.04 1151.57 152.984C1170.35 160.888 1189.12 168.584 1207.89 175.344C1248.43 189.8 1289.39 199.992 1333.01 197.496" stroke="#24444F" stroke-miterlimit="10"/>
<path d="M-110.72 700.336C-80 633.36 -16.5333 584.272 50.56 562.952C91.0934 550.056 133.12 546.728 178.987 548.912C184.747 549.224 190.507 549.536 196.267 549.952C244.267 553.488 293.44 561.392 340.693 566.176C394.88 571.792 448.32 573.144 501.973 559.312C562.027 543.816 609.813 518.544 649.493 476.736C660.907 464.776 671.253 451.568 680.533 437.528C698.133 410.904 712.747 381.472 725.973 351.832C744 311.48 760.213 270.504 782.72 232.44C785.6 227.552 788.587 222.768 791.787 217.984C819.093 176.488 857.707 139.048 903.893 121.472C924.907 113.464 946.773 109.616 969.493 109.72C1011.73 109.928 1052.59 124.28 1093.12 139.776C1115.95 148.408 1138.45 157.248 1160.21 165.36C1179.31 172.432 1198.4 179.088 1217.49 184.704C1258.45 196.768 1299.2 204.048 1342.51 199.264" stroke="#224B56" stroke-miterlimit="10"/>
<path d="M-112.107 696.384C-80.64 630.032 -15.2534 583.336 50.88 566.072C90.88 555.672 131.307 555.048 176.747 558.376C182.4 558.792 188.16 559.312 193.92 559.728C241.6 563.888 290.773 570.232 337.6 573.456C391.147 577.304 444.053 576.472 497.6 563.368C558.613 548.392 607.467 528.424 649.28 488.592C661.333 477.256 672.32 464.256 682.133 450.424C700.693 424.112 715.947 394.264 729.387 364.208C747.627 323.336 763.627 281.528 786.133 242.632C789.013 237.64 792 232.752 795.2 227.864C822.507 185.536 861.867 147.264 909.013 130.52C930.56 122.928 952.64 119.808 975.467 120.744C1017.92 122.304 1058.99 138.112 1100.16 153.4C1123.41 162.032 1146.45 170.248 1168.64 177.32C1188.16 183.664 1207.57 189.28 1226.77 193.752C1268.05 203.32 1308.69 207.688 1351.57 200.824" stroke="#20525D" stroke-miterlimit="10"/>
<path d="M-113.493 692.536C-81.28 626.704 -14.08 582.504 51.2 569.192C90.6667 561.184 129.493 563.368 174.613 567.736C180.267 568.256 185.92 568.88 191.68 569.4C239.04 574.184 288.32 578.968 334.613 580.528C387.627 582.504 439.893 579.696 493.44 567.112C555.413 552.656 605.333 537.784 649.28 500.136C661.867 489.32 673.493 476.736 683.84 462.904C703.36 436.904 719.253 406.744 732.907 376.272C751.467 334.776 767.147 292.24 789.547 252.616C792.427 247.52 795.413 242.528 798.507 237.536C825.813 194.376 865.92 155.272 914.133 139.464C936.107 132.288 958.507 130 981.547 131.664C1024.32 134.68 1065.39 151.84 1107.2 166.92C1130.88 175.448 1154.35 183.144 1176.96 189.28C1196.8 194.792 1216.64 199.368 1235.95 202.696C1277.65 209.872 1318.08 211.328 1360.64 202.28" stroke="#1E5964" stroke-miterlimit="10"/>
<path d="M-114.773 688.688C-81.8134 623.48 -12.6934 581.568 51.5199 572.416C90.4532 566.904 127.787 571.792 172.373 577.2C177.92 577.928 183.573 578.552 189.333 579.176C236.373 584.48 285.653 587.808 331.52 587.808C384 588.016 435.733 583.024 489.067 571.168C552 557.232 602.987 547.664 649.173 512.096C662.4 501.904 674.56 489.528 685.44 475.904C705.813 450.216 722.453 419.64 736.32 388.752C755.2 346.736 770.56 303.368 792.96 263.016C795.84 257.816 798.827 252.72 801.92 247.728C829.227 203.736 870.08 163.8 919.253 148.928C941.76 142.168 964.373 140.712 987.52 143.104C1030.51 147.576 1071.79 165.984 1114.24 180.96C1138.35 189.488 1162.35 196.456 1185.39 201.76C1205.65 206.44 1225.71 210.08 1245.33 212.264C1287.47 216.944 1327.57 215.592 1369.81 204.36" stroke="#1D616C" stroke-miterlimit="10"/>
<path d="M-116.16 684.84C-82.4534 620.152 -11.52 580.736 51.84 575.536C90.1333 572.416 125.973 580.112 170.133 586.664C175.68 587.496 181.333 588.224 186.987 588.952C233.707 594.88 283.093 596.648 328.533 595.088C380.373 593.32 431.573 586.456 484.907 575.224C548.8 561.808 600.96 557.544 649.173 523.952C663.04 514.28 675.84 502.32 687.147 488.8C708.48 463.32 725.76 432.432 739.84 401.232C759.04 358.592 774.08 314.496 796.373 273.416C799.253 268.112 802.24 262.912 805.333 257.816C832.64 212.992 874.24 172.224 924.48 158.288C947.413 151.944 970.347 151.216 993.707 154.44C1036.91 160.368 1078.4 180.128 1121.49 195C1145.92 203.424 1170.45 209.872 1194.03 214.24C1214.72 218.192 1235.09 220.688 1254.83 221.728C1297.28 223.912 1337.28 219.648 1379.2 206.336" stroke="#1B6873" stroke-miterlimit="10"/>
<path d="M-117.44 680.992C-82.9867 616.928 -10.1334 579.904 52.2667 578.76C90.0267 578.032 124.373 588.536 168.107 596.128C173.653 597.064 179.2 598 184.747 598.728C231.147 605.28 280.533 605.488 325.547 602.264C376.853 598.624 427.413 589.784 480.64 579.176C545.493 566.28 598.72 567.216 649.067 535.808C663.573 526.76 676.907 515.112 688.747 501.592C711.04 476.424 728.853 445.224 743.147 413.504C762.667 370.344 777.387 325.312 799.573 283.608C802.453 278.304 805.44 273 808.533 267.696C835.947 222.04 878.293 180.336 929.387 167.44C952.853 161.512 976 161.616 999.467 165.568C1042.88 172.952 1084.48 193.96 1128.21 208.728C1153.07 217.048 1178.03 222.872 1202.13 226.408C1223.15 229.528 1243.95 230.984 1263.79 230.88C1306.67 230.672 1346.45 223.496 1387.95 207.896" stroke="#196F7A" stroke-miterlimit="10"/>
<path d="M-118.827 677.04C-83.7334 613.6 -8.9601 578.968 52.5866 581.776C89.8132 583.544 122.56 596.752 165.867 605.384C171.307 606.528 176.853 607.464 182.4 608.296C228.48 615.368 277.867 614.12 322.453 609.336C373.227 603.928 423.147 592.904 476.267 583.024C542.08 570.752 596.48 576.888 648.853 547.456C664 538.928 677.867 527.592 690.347 514.28C713.493 489.424 732.053 457.808 746.56 425.776C766.4 381.992 780.8 336.232 802.987 293.8C805.867 288.392 808.747 282.984 811.947 277.576C839.36 231.088 882.453 188.552 934.613 176.592C958.507 171.08 981.973 171.912 1005.65 176.696C1049.39 185.432 1091.09 207.896 1135.47 222.456C1160.75 230.776 1186.24 235.976 1210.67 238.576C1232.11 240.968 1253.12 241.384 1273.28 240.136C1316.48 237.432 1356.16 227.448 1397.23 209.664" stroke="#177682" stroke-miterlimit="10"/>
<path d="M-120.107 673.192C-84.2667 610.272 -7.68003 578.136 53.0133 584.896C89.7066 589.056 120.853 605.072 163.733 614.848C169.173 616.096 174.613 617.136 180.16 618.072C225.92 625.768 275.413 622.96 319.467 616.616C369.6 609.336 419.093 596.336 472.107 587.08C538.88 575.328 594.453 586.768 648.853 559.312C664.64 551.408 679.147 540.384 692.053 527.176C716.16 502.528 735.36 470.704 750.08 438.152C770.133 393.848 784.427 347.256 806.4 304.096C809.173 298.584 812.16 293.072 815.36 287.664C842.773 240.344 886.613 196.976 939.733 185.952C964.16 180.856 987.84 182.52 1011.73 188.032C1055.68 198.224 1097.6 221.936 1142.61 236.392C1168.32 244.608 1194.24 249.288 1219.2 250.952C1240.96 252.512 1262.4 251.888 1282.67 249.496C1326.29 244.4 1365.76 231.504 1406.51 211.536" stroke="#157D89" stroke-miterlimit="10"/>
<path d="M-121.493 669.344C-84.9067 607.048 -6.39998 577.304 53.3334 588.12C89.4934 594.672 119.147 613.496 161.6 624.312C166.933 625.664 172.373 626.912 177.92 627.848C223.36 636.168 272.853 631.904 316.587 623.792C366.187 614.64 415.04 599.768 467.947 591.032C535.68 579.904 592.32 596.544 648.96 571.168C665.387 563.784 680.427 553.072 693.867 539.968C718.827 515.632 738.773 483.392 753.707 450.528C774.08 405.704 788.053 358.28 810.027 314.288C812.8 308.672 815.787 303.056 818.987 297.544C846.4 249.392 890.987 205.192 945.173 195C970.027 190.32 994.027 192.712 1018.03 199.056C1062.19 210.6 1104.21 235.768 1149.87 250.12C1176 258.232 1202.45 262.288 1227.84 263.12C1250.03 263.848 1271.79 262.288 1292.16 258.752C1336.21 251.16 1375.47 235.352 1415.79 213.304" stroke="#138490" stroke-miterlimit="10"/>
<path d="M-122.773 665.496C-85.44 603.824 -5.12007 576.472 53.6533 591.24C89.1733 600.288 117.333 621.816 159.36 633.672C164.693 635.232 170.027 636.48 175.573 637.52C220.693 646.36 270.293 640.64 313.493 630.968C362.453 620.048 410.773 603.096 463.68 594.984C532.48 584.48 590.187 606.32 648.853 582.92C665.813 576.16 681.493 565.76 695.467 552.76C721.387 528.736 741.973 496.08 757.12 462.904C777.813 417.456 791.467 369.304 813.333 324.584C816.107 318.864 819.093 313.144 822.293 307.528C849.707 258.544 895.04 213.512 950.187 204.256C975.573 199.992 999.787 203.216 1024 210.288C1068.37 223.288 1110.61 249.808 1156.91 263.952C1183.36 272.064 1210.35 275.496 1236.27 275.392C1258.88 275.392 1280.85 272.688 1301.55 268.008C1345.92 257.92 1385.07 239.304 1425.07 214.968" stroke="#118B97" stroke-miterlimit="10"/>
<path d="M-124.16 661.544C-86.08 600.392 -3.84004 575.432 53.9733 594.36C88.96 605.8 115.627 630.136 157.12 643.136C162.347 644.8 167.787 646.152 173.12 647.296C217.92 656.76 267.52 649.48 310.293 638.248C358.72 625.456 406.507 606.528 459.2 599.04C528.96 589.16 587.733 616.096 648.533 594.88C666.133 588.744 682.453 578.552 696.853 565.76C723.627 541.944 744.96 509.08 760.32 475.384C781.333 429.416 794.667 380.432 816.533 334.984C819.307 329.16 822.293 323.336 825.387 317.616C852.8 267.8 898.88 221.936 955.093 213.616C980.907 209.768 1005.44 213.72 1029.76 221.624C1074.45 235.976 1116.69 263.848 1163.73 277.888C1190.61 285.896 1218.13 288.808 1244.37 287.768C1267.31 286.936 1289.71 283.192 1310.51 277.472C1355.31 264.992 1394.13 243.464 1433.81 216.944" stroke="#0F929F" stroke-miterlimit="10"/>
<path d="M-125.547 657.696C-86.72 597.168 -2.66665 574.6 54.2934 597.48C88.7467 611.416 113.813 638.456 154.987 652.496C160.213 654.264 165.547 655.824 170.88 656.968C215.36 667.056 265.067 658.216 307.307 645.424C355.2 630.864 402.347 609.856 455.04 602.992C525.76 593.736 585.707 625.872 648.533 606.632C666.773 601.016 683.627 591.24 698.667 578.448C726.4 554.944 748.373 521.664 763.947 487.656C785.28 441.064 798.293 391.352 820.053 345.176C822.827 339.248 825.813 333.32 828.907 327.6C856.32 276.952 903.147 230.256 960.32 222.872C986.667 219.44 1011.41 224.12 1035.95 232.856C1080.85 248.56 1123.31 277.888 1170.88 291.72C1198.19 299.624 1226.13 301.912 1252.91 300.04C1276.27 298.376 1298.99 293.696 1319.89 286.728C1365.01 271.752 1403.73 247.416 1442.99 218.712" stroke="#0D99A6" stroke-miterlimit="10"/>
<path d="M-126.827 653.848C-87.2534 593.84 -1.28011 573.768 54.7199 600.704C88.6399 617.032 112.107 646.88 152.853 661.96C157.973 663.936 163.307 665.496 168.64 666.744C212.8 677.352 262.507 667.16 304.427 652.6C351.68 636.168 398.293 613.288 450.88 606.944C522.56 598.312 583.68 635.752 648.533 618.384C667.413 613.392 684.8 603.824 700.373 591.24C729.067 567.944 751.68 534.456 767.467 499.928C789.12 452.816 801.813 402.272 823.573 355.368C826.347 349.336 829.333 343.408 832.427 337.48C859.84 285.896 907.413 238.472 965.547 232.024C992.32 229.112 1017.39 234.52 1042.03 243.984C1087.15 261.144 1129.81 291.72 1178.03 305.552C1205.76 313.456 1234.13 315.12 1261.44 312.312C1285.12 309.92 1308.16 304.096 1329.39 295.984C1374.93 278.616 1413.44 251.264 1452.37 220.48" stroke="#0BA0AD" stroke-miterlimit="10"/>
<path d="M-128.213 650C-88 590.616 -0.106658 572.936 55.04 603.824C88.4267 622.544 110.4 655.2 150.613 671.424C155.733 673.504 160.96 675.168 166.293 676.52C210.133 687.752 259.947 676.104 301.333 659.88C348.053 641.784 394.133 616.72 446.507 611C519.147 602.992 581.333 645.632 648.427 630.344C667.947 625.976 685.867 616.72 701.973 604.24C731.52 581.152 754.88 547.352 770.88 512.512C792.747 464.776 805.227 413.504 826.88 365.872C829.653 359.736 832.64 353.704 835.733 347.672C863.147 295.256 911.467 247 970.667 241.488C997.867 238.992 1023.25 245.128 1048.11 255.424C1093.55 273.936 1136.21 305.968 1185.17 319.592C1213.33 327.392 1242.24 328.536 1269.97 324.792C1294.08 321.568 1317.44 314.808 1338.77 305.552C1384.75 285.688 1423.04 255.528 1461.55 222.56" stroke="#0AA8B5" stroke-miterlimit="10"/>
<path d="M-129.493 646.048C-88.5333 587.288 1.28004 572 55.36 606.944C88.2134 628.16 108.587 663.52 148.48 680.784C153.6 682.968 158.72 684.84 164.053 686.192C207.573 698.048 257.387 684.84 298.347 667.056C344.533 647.088 389.973 620.152 442.347 614.952C516.053 607.672 579.307 655.408 648.427 642.096C668.587 638.248 687.147 629.304 703.68 617.032C734.08 594.256 758.187 560.04 774.4 524.784C796.587 476.528 808.747 424.424 830.4 375.96C833.173 369.72 836.16 363.584 839.253 357.448C866.667 304.2 915.733 255.112 975.893 250.536C1003.63 248.456 1029.23 255.424 1054.29 266.448C1099.95 286.416 1142.83 319.8 1192.32 333.216C1220.91 340.912 1250.24 341.432 1278.4 336.752C1302.93 332.696 1326.61 324.896 1348.05 314.496C1394.35 292.136 1432.53 259.168 1470.72 223.912" stroke="#08AFBC" stroke-miterlimit="10"/>
<path d="M-130.88 642.2C-89.1733 583.96 2.45328 571.168 55.6799 610.064C87.8933 633.672 106.88 671.84 146.24 690.144C151.253 692.536 156.373 694.408 161.6 695.864C204.8 708.24 254.72 693.576 295.147 674.128C340.8 652.392 385.6 623.376 437.867 618.8C512.533 612.144 576.853 665.08 648.107 653.744C668.907 650.52 688 641.888 705.067 629.616C736.427 607.152 761.173 572.624 777.6 536.952C800.107 488.072 812.053 435.136 833.493 386.048C836.267 379.704 839.147 373.464 842.347 367.328C869.76 313.248 919.573 263.328 980.8 259.584C1008.96 257.92 1034.88 265.616 1060.05 277.472C1105.92 298.792 1149.01 333.528 1199.15 346.84C1228.05 354.536 1258.03 354.432 1286.61 348.816C1311.47 344.032 1335.47 335.088 1357.23 323.648C1403.95 298.896 1441.92 263.016 1479.68 225.576" stroke="#06B6C3" stroke-miterlimit="10"/>
<path d="M-132.16 638.352C-89.7067 580.736 3.83997 570.232 56.1066 613.288C87.7866 639.392 105.173 680.264 144.107 699.712C149.12 702.208 154.133 704.184 159.36 705.744C202.24 718.744 252.16 702.624 292.16 681.512C337.173 657.904 381.547 627.016 433.707 622.856C509.333 616.928 574.827 674.96 648.107 665.704C669.547 663 689.173 654.68 706.773 642.616C738.987 620.36 764.48 585.52 781.12 549.432C803.947 500.032 815.573 446.264 837.013 396.448C839.787 390 842.667 383.656 845.867 377.416C873.28 322.504 923.84 271.752 986.027 268.944C1014.72 267.696 1040.85 276.224 1066.24 288.808C1112.43 311.584 1155.52 347.672 1206.4 360.776C1235.73 368.368 1266.13 367.744 1295.25 361.192C1320.53 355.576 1344.85 345.696 1366.72 333.008C1413.76 305.76 1451.52 266.968 1488.96 227.448" stroke="#04BDCA" stroke-miterlimit="10"/>
<path d="M-133.547 634.504C-90.3467 577.512 5.01334 569.4 56.4267 616.408C87.5733 644.904 103.36 688.584 141.973 709.072C146.88 711.672 152 713.752 157.12 715.416C199.68 729.04 249.6 711.36 289.28 688.688C333.76 663.208 377.493 630.552 429.547 626.808C506.133 621.712 572.693 684.632 648.107 677.456C670.187 675.376 690.453 667.368 708.587 655.408C741.76 633.464 767.893 598.312 784.747 561.808C807.893 511.888 819.2 457.288 840.533 406.744C843.307 400.192 846.187 393.744 849.387 387.4C876.8 331.656 928.107 280.072 991.36 278.2C1020.48 277.368 1046.93 286.624 1072.43 300.04C1118.83 324.272 1162.13 361.608 1213.55 374.712C1243.31 382.2 1274.24 380.952 1303.79 373.568C1329.39 367.224 1354.13 356.2 1376.11 342.472C1423.57 312.832 1461.12 271.128 1498.24 229.424" stroke="#02C4D2" stroke-miterlimit="10"/>
<path d="M-134.827 630.656C-90.88 574.184 6.39996 568.568 56.8533 619.632C87.4666 650.52 101.76 697.008 139.84 718.64C184.853 744.12 242.347 723.32 286.293 696.072C330.24 668.824 373.333 634.088 425.28 630.968C502.827 626.392 570.56 694.616 648.107 689.52C712.213 685.256 761.813 631.384 788.267 574.392C814.72 517.4 825.387 454.168 852.8 397.592C880.32 341.016 932.373 288.6 996.48 287.664C1079.89 286.416 1139.84 368.68 1220.69 388.648C1277.01 402.584 1337.6 383.968 1385.49 351.832C1433.39 319.696 1470.72 275.184 1507.41 231.192" stroke="#00CBD9" stroke-miterlimit="10"/>
<path d="M-134.4 625.352C-89.4934 569.296 7.46667 563.472 59.0933 613.288C80.32 633.776 94.3999 661.336 112.853 684.008C121.707 694.824 131.52 704.496 143.68 711.568C153.6 717.392 164.16 720.928 175.04 722.8C213.333 729.144 256.107 712.712 290.773 692.016C295.573 689.208 300.373 686.192 305.067 683.28C344.747 658.424 384.427 630.552 430.933 627.12C490.133 622.96 544.107 660.296 600.64 676.728C617.493 681.616 634.667 684.632 652.267 683.904C715.307 681.512 764.053 632.736 791.36 579.592C797.653 567.32 803.307 554.736 808.533 541.84C825.813 498.784 838.507 452.712 860.053 409.76C868.16 393.64 878.187 377.832 889.707 363.272C918.187 327.704 956.373 300.56 1000.53 298.168C1023.68 296.92 1045.01 302.328 1065.6 310.96C1116.59 332.384 1162.88 374.088 1219.63 386.048C1275.09 397.8 1334.93 378.872 1382.72 347.464C1430.51 316.056 1468.59 273.208 1505.92 231.504" stroke="#02CDD5" stroke-miterlimit="10"/>
<path d="M-134.08 620.152C-88.1067 564.512 8.42667 558.584 61.3333 607.152C83.0933 627.12 97.92 654.16 116.693 676.832C125.653 687.648 135.467 697.424 147.627 704.704C157.44 710.632 168 714.48 178.88 716.56C217.173 723.84 260.267 708.344 295.467 688.168C300.267 685.36 305.173 682.552 309.973 679.64C350.187 655.304 390.187 627.432 436.8 623.48C495.467 618.488 549.547 653.848 605.653 670.488C622.4 675.48 639.253 678.704 656.533 678.6C718.507 678.184 766.187 634.4 794.667 585.208C801.173 573.872 807.147 562.12 812.8 549.952C831.36 509.496 845.44 464.672 867.52 422.344C875.84 406.432 885.867 390.728 897.28 376.376C925.333 340.912 962.24 313.352 1004.91 309.296C1027.31 307.216 1047.89 311.376 1067.84 318.76C1117.33 336.856 1162.99 374.4 1218.88 384.072C1273.49 393.64 1332.48 374.296 1380.27 343.616C1428.05 312.936 1466.77 271.856 1504.75 232.336" stroke="#05CFD1" stroke-miterlimit="10"/>
<path d="M-133.653 614.848C-86.7201 559.624 9.4933 553.488 63.5733 600.912C85.8666 620.464 101.44 646.984 120.533 669.656C129.6 680.472 139.413 690.352 151.573 697.84C161.387 703.976 171.733 708.032 182.613 710.32C220.907 718.536 264.32 703.976 300.053 684.32C304.96 681.616 309.867 678.808 314.773 676C355.52 652.184 395.733 624.312 442.56 619.736C500.8 614.12 554.987 647.192 610.56 664.04C627.2 669.136 643.84 672.672 660.8 673.088C721.707 674.544 768.533 635.856 797.867 590.616C804.693 580.216 810.88 569.296 816.853 557.856C836.693 519.896 852.16 476.32 874.773 434.616C883.2 418.912 893.227 403.416 904.533 389.064C932.16 353.808 967.787 325.728 1008.85 320.008C1030.4 317.096 1050.35 320.112 1069.76 326.04C1117.87 340.808 1162.88 374.088 1217.81 381.576C1271.47 388.856 1329.81 369.304 1377.6 339.352C1425.39 309.4 1464.64 270.088 1503.36 232.752" stroke="#07D1CC" stroke-miterlimit="10"/>
<path d="M-133.227 609.648C-85.3333 554.84 10.5599 548.496 65.9199 594.776C88.7466 613.808 105.067 639.808 124.48 662.584C133.653 673.4 143.573 683.384 155.52 691.08C165.227 697.32 175.573 701.688 186.453 704.184C224.747 713.336 268.48 699.608 304.747 680.576C309.76 677.976 314.667 675.168 319.68 672.36C360.853 649.064 401.493 621.192 448.427 616.096C506.133 609.752 560.427 640.64 615.573 657.8C632 662.896 648.427 666.744 665.067 667.68C724.907 671.112 770.773 637.312 801.173 596.128C808.213 586.56 814.827 576.576 821.12 565.864C842.347 530.4 859.2 488.176 882.24 447.096C890.88 431.704 900.907 416.208 912 401.96C939.2 366.808 973.653 338.312 1013.12 330.824C1033.81 326.976 1053.12 328.848 1071.89 333.528C1118.51 344.968 1162.88 374.088 1216.96 379.288C1269.76 384.384 1327.25 364.52 1375.04 335.296C1422.83 306.072 1462.72 268.424 1502.08 233.376" stroke="#09D2C8" stroke-miterlimit="10"/>
<path d="M-132.8 604.448C-83.84 550.056 11.6267 543.608 68.2667 588.64C91.6267 607.152 108.8 632.736 128.427 655.512C137.707 666.328 147.627 676.416 159.573 684.32C169.28 690.768 179.52 695.344 190.293 698.152C228.587 708.24 272.64 695.448 309.44 676.936C314.453 674.336 319.573 671.736 324.587 668.928C366.293 646.152 407.253 618.384 454.293 612.56C511.467 605.488 565.867 634.192 620.587 651.664C636.907 656.864 653.013 661.024 669.44 662.48C728.213 667.784 773.227 639.08 804.48 601.744C811.733 593.112 818.667 583.96 825.387 574.08C847.893 541.216 866.133 500.136 889.707 459.68C898.56 444.496 908.587 429.208 919.467 414.96C946.24 379.912 979.413 350.896 1017.39 341.848C1037.33 337.168 1055.79 337.896 1074.03 341.12C1119.25 349.232 1162.88 374.192 1216.11 377.104C1268.05 380.016 1324.8 359.736 1372.48 331.24C1420.27 302.744 1460.8 266.864 1500.8 233.896" stroke="#0BD4C4" stroke-miterlimit="10"/>
<path d="M-132.373 599.144C-82.4534 545.272 12.6933 538.512 70.5067 582.4C94.4 600.496 112.32 625.456 132.267 648.232C141.653 659.048 151.573 669.24 163.52 677.352C173.12 683.904 183.36 688.688 194.133 691.808C232.427 702.832 276.693 690.976 314.133 672.984C319.253 670.488 324.373 667.888 329.493 665.184C371.733 642.928 412.907 615.264 460.16 608.816C516.8 601.12 571.413 627.536 625.6 645.32C641.707 650.624 657.707 654.992 673.813 656.968C731.52 664.144 775.573 640.536 807.787 607.152C815.253 599.456 822.507 591.136 829.653 581.984C853.44 551.616 873.173 511.888 897.173 471.952C906.133 456.976 916.16 441.896 926.933 427.648C953.387 392.808 985.173 363.168 1021.65 352.56C1040.75 346.944 1058.56 346.528 1076.16 348.504C1120 353.288 1162.88 374.088 1215.25 374.712C1266.35 375.44 1322.24 354.848 1369.92 327.08C1417.71 299.312 1458.77 265.096 1499.52 234.416" stroke="#0ED6C0" stroke-miterlimit="10"/>
<path d="M-131.947 593.944C-81.0667 540.488 13.76 533.52 72.8533 576.264C97.28 593.84 115.947 618.28 136.213 641.16C145.707 651.976 155.627 662.272 167.467 670.592C177.067 677.352 187.2 682.344 197.867 685.672C236.053 697.632 280.747 686.712 318.72 669.24C323.947 666.848 329.067 664.352 334.293 661.648C377.067 639.912 418.56 612.248 465.92 605.176C522.027 596.752 576.747 621.088 630.4 639.08C646.4 644.488 662.08 649.168 677.867 651.664C734.507 660.816 777.707 642.096 810.88 612.768C818.56 605.904 826.133 598.52 833.707 590.096C858.773 562.328 879.893 523.848 904.32 484.536C913.493 469.768 923.52 454.792 934.08 440.648C960.107 405.912 990.614 375.856 1025.49 363.48C1043.84 357.032 1060.91 355.368 1077.87 355.992C1120.21 357.448 1162.45 374.088 1213.97 372.424C1264.21 370.968 1319.36 350.064 1366.93 323.024C1414.61 295.984 1456.43 263.536 1497.81 235.04" stroke="#10D8BB" stroke-miterlimit="10"/>
<path d="M-131.52 588.64C-79.5734 535.6 14.8267 528.424 75.0933 570.024C100.053 587.184 119.573 611.104 140.053 633.984C149.653 644.696 159.68 655.2 171.413 663.624C180.907 670.488 190.933 675.792 201.707 679.432C239.893 692.328 284.907 682.24 323.413 665.392C328.64 663.104 333.973 660.608 339.093 658.008C382.4 636.792 424.213 609.232 471.68 601.432C527.36 592.384 582.08 614.432 635.307 632.736C651.093 638.144 666.667 643.136 682.133 646.256C737.707 657.28 780.053 643.656 814.08 618.28C821.973 612.352 829.867 605.8 837.867 598.208C864.213 572.936 886.72 535.704 911.68 497.016C920.96 482.56 931.093 467.688 941.44 453.544C967.04 418.912 996.267 388.44 1029.65 374.4C1047.15 367.016 1063.57 364.312 1080 363.584C1120.96 361.712 1162.45 374.192 1213.12 370.24C1262.4 366.496 1316.8 345.28 1364.48 318.968C1412.16 292.656 1454.61 261.976 1496.53 235.664" stroke="#12DAB7" stroke-miterlimit="10"/>
<path d="M-131.093 583.44C-78.1867 530.816 15.8933 523.536 77.44 563.888C102.933 580.528 123.2 603.928 144 626.912C153.707 637.624 163.733 648.232 175.36 656.864C184.853 663.936 194.773 669.448 205.547 673.296C243.733 687.128 289.067 677.976 328 661.648C333.333 659.36 338.667 656.968 343.893 654.472C387.733 633.776 429.76 606.32 477.44 597.896C532.587 588.12 587.52 607.984 640.213 626.6C655.893 632.112 671.147 637.416 686.293 640.952C740.8 653.848 782.293 645.32 817.28 623.792C825.493 618.8 833.707 613.08 842.027 606.216C869.653 583.44 893.653 547.56 919.04 509.392C928.533 495.144 938.56 480.48 948.907 466.336C974.08 431.808 1002.03 400.92 1033.92 385.112C1050.56 376.896 1066.35 372.944 1082.13 370.864C1121.71 365.664 1162.56 373.88 1212.27 367.744C1260.69 361.816 1314.24 340.288 1361.92 314.704C1409.6 289.12 1452.59 260.104 1495.25 235.976" stroke="#15DCB3" stroke-miterlimit="10"/>
<path d="M-130.667 578.24C-76.6934 526.032 17.0666 518.544 79.6799 557.648C105.707 573.872 126.72 596.752 147.84 619.632C157.76 630.344 167.68 641.056 179.307 649.896C188.693 657.072 198.613 662.792 209.28 666.952C247.467 681.72 293.12 673.504 332.587 657.696C338.027 655.512 343.36 653.224 348.693 650.728C393.067 630.552 435.413 603.2 483.2 594.048C537.813 583.648 592.853 601.224 645.12 620.152C660.693 625.768 675.627 631.28 690.56 635.44C744 650.312 784.64 646.672 820.48 629.2C828.907 625.144 837.44 620.256 846.187 614.12C875.093 593.944 900.48 559.208 926.4 521.768C936.107 507.728 946.133 493.168 956.267 479.232C981.013 444.912 1007.68 413.504 1038.08 396.032C1053.97 386.984 1069.01 381.784 1084.16 378.456C1122.35 369.824 1162.45 373.984 1211.31 365.56C1258.88 357.448 1311.68 335.608 1359.25 310.648C1406.93 285.792 1450.56 258.544 1493.87 236.6" stroke="#17DEAF" stroke-miterlimit="10"/>
<path d="M-130.24 572.936C-75.3067 521.144 18.1333 513.448 82.0267 551.408C108.587 567.112 130.347 589.472 151.787 612.456C161.813 623.168 171.733 633.984 183.36 643.032C192.64 650.416 202.56 656.344 213.227 660.712C251.413 676.416 297.387 669.032 337.387 653.848C342.827 651.768 348.373 649.48 353.707 647.088C398.613 627.432 441.28 600.184 489.173 590.408C543.253 579.384 598.507 594.672 650.24 613.912C665.6 619.528 680.427 625.456 695.04 630.032C747.52 646.776 787.2 648.232 824 634.712C832.64 631.488 841.493 627.536 850.667 622.232C880.747 604.552 907.733 571.168 934.08 534.248C943.893 520.416 954.027 506.064 963.947 492.128C988.267 457.912 1013.65 425.984 1042.56 406.952C1057.6 396.968 1072 390.728 1086.51 385.944C1123.31 373.984 1162.67 373.984 1210.67 363.272C1257.39 352.976 1309.33 330.72 1356.91 306.592C1404.59 282.464 1448.85 256.88 1492.8 237.224" stroke="#19DFAA" stroke-miterlimit="10"/>
<path d="M-129.813 567.736C-73.92 516.36 19.2 508.56 84.3733 545.272C111.467 560.456 134.08 582.4 155.733 605.384C165.867 616.096 175.893 627.016 187.307 636.272C196.587 643.76 206.4 650 216.96 654.68C255.147 671.424 301.44 664.872 341.973 650.208C347.52 648.232 353.067 646.048 358.507 643.656C403.84 624.52 446.827 597.376 494.933 586.872C548.587 575.224 603.84 588.328 655.147 607.672C670.4 613.392 684.907 619.528 699.2 624.728C750.613 643.448 789.44 649.896 827.093 640.224C836.053 637.936 845.12 634.816 854.72 630.24C886.08 615.056 914.453 582.92 941.333 546.728C951.36 533.208 961.387 518.96 971.2 505.024C995.093 470.912 1019.2 438.568 1046.51 417.768C1060.69 406.952 1074.45 399.464 1088.32 393.432C1123.73 378.04 1162.35 373.984 1209.49 360.984C1255.36 348.504 1306.56 325.936 1354.13 302.536C1401.71 279.136 1446.72 255.32 1491.31 237.848" stroke="#1BE1A6" stroke-miterlimit="10"/>
<path d="M-129.387 562.432C-72.4267 511.472 20.2666 503.464 86.6133 539.032C114.24 553.8 137.6 575.12 159.573 598.208C169.813 608.92 179.84 619.944 191.253 629.408C200.427 637.104 210.133 643.552 220.8 648.44C258.88 666.12 305.6 660.504 346.667 646.256C352.32 644.28 357.867 642.2 363.413 639.912C409.28 621.296 452.587 594.256 500.8 583.128C553.92 570.856 609.28 581.672 660.16 601.328C675.2 607.152 689.493 613.6 703.573 619.32C753.92 639.912 792 651.456 830.4 645.736C839.573 644.384 848.96 642.2 858.987 638.248C891.627 625.56 921.387 594.776 948.8 559.104C959.04 545.792 969.067 531.648 978.667 517.816C1002.13 483.912 1024.96 451.048 1050.77 428.584C1064.21 416.936 1077.23 408.2 1090.56 400.816C1124.59 381.992 1162.45 373.88 1208.75 358.592C1253.65 343.928 1304.11 320.944 1351.68 298.272C1399.25 275.6 1444.8 253.552 1490.13 238.16" stroke="#1EE3A2" stroke-miterlimit="10"/>
<path d="M-128.96 557.232C-71.04 506.688 21.3334 498.472 88.96 532.896C117.12 547.144 141.227 568.048 163.52 591.032C173.867 601.744 183.893 612.872 195.2 622.544C204.373 630.344 213.973 637.104 224.64 642.2C262.72 660.816 309.76 656.136 351.36 642.408C357.013 640.536 362.667 638.456 368.32 636.272C414.72 618.072 458.347 591.24 506.667 579.384C559.253 566.488 614.827 575.016 665.173 594.984C680.107 600.912 694.187 607.568 707.84 613.808C757.12 636.272 794.347 653.016 833.707 651.144C843.093 650.728 852.8 649.376 863.147 646.256C897.067 636.064 928.32 606.528 956.053 571.48C966.4 558.376 976.533 544.44 985.92 530.608C1008.96 496.808 1030.51 463.528 1054.83 439.4C1067.41 426.92 1079.68 416.936 1092.48 408.304C1125.12 386.152 1162.24 373.88 1207.68 356.304C1251.73 339.352 1301.44 316.16 1348.91 294.216C1396.48 272.272 1442.67 251.888 1488.64 238.784" stroke="#20E59E" stroke-miterlimit="10"/>
<path d="M-128.533 552.032C-69.5467 501.904 22.4 493.48 91.2 526.76C119.893 540.592 144.853 560.872 167.36 583.96C177.813 594.672 187.947 605.904 199.147 615.68C208.213 623.688 217.813 630.656 228.373 635.96C266.453 655.512 313.707 651.664 355.947 638.56C361.707 636.792 367.467 634.816 373.12 632.632C420.053 614.952 464 588.224 512.427 575.744C564.587 562.224 620.16 568.464 670.08 588.744C684.8 594.672 698.667 601.744 712.107 608.504C760.32 632.944 796.693 654.68 836.907 656.76C846.613 657.28 856.64 656.76 867.307 654.368C902.4 646.672 935.147 618.488 963.413 584.064C973.973 571.168 984.107 557.44 993.28 543.608C1016 509.912 1036.16 476.216 1058.99 450.32C1070.83 436.904 1082.35 425.776 1094.51 415.792C1125.65 390.208 1162.24 373.88 1206.72 354.016C1249.92 334.88 1298.77 311.376 1346.24 290.16C1393.81 268.944 1440.64 250.328 1487.25 239.408" stroke="#22E799" stroke-miterlimit="10"/>
<path d="M-128.107 546.728C-68.16 497.016 23.4666 488.488 93.5466 520.52C122.773 533.832 148.48 553.592 171.307 576.784C181.867 587.496 192 598.832 203.2 608.816C212.267 616.928 221.76 624.104 232.32 629.824C270.4 650.312 317.973 647.4 360.747 634.816C366.613 633.048 372.373 631.176 378.133 629.096C425.6 611.936 469.76 585.416 518.4 572.104C570.027 557.96 625.813 562.016 675.2 582.504C689.813 588.536 703.467 595.816 716.587 603.096C763.733 629.408 799.253 656.344 840.427 662.168C850.347 663.624 860.693 663.936 871.787 662.272C908.16 657.072 942.4 630.24 971.093 596.336C981.76 583.752 991.893 570.024 1001.07 556.296C1023.36 522.808 1042.24 488.592 1063.47 461.032C1074.45 446.784 1085.33 434.408 1096.85 423.176C1126.61 394.16 1162.45 373.672 1206.08 351.52C1248.43 330.2 1296.53 306.28 1344 285.792C1391.57 265.304 1438.93 248.352 1486.29 239.72" stroke="#25E995" stroke-miterlimit="10"/>
<path d="M-127.68 541.528C-66.7733 492.232 24.5334 483.496 95.8934 514.384C125.653 527.28 152.107 546.52 175.253 569.712C185.92 580.424 196.053 591.864 207.147 602.056C216.107 610.376 225.493 617.76 236.053 623.688C274.133 645.112 322.027 643.136 365.333 631.072C371.2 629.408 377.067 627.536 382.827 625.56C430.827 608.92 475.307 582.504 524.053 568.464C575.147 553.8 631.04 555.464 680 576.264C694.4 582.4 707.84 589.888 720.64 597.792C766.72 625.976 801.387 658.112 843.413 667.784C853.547 670.176 864.213 671.32 875.733 670.488C913.387 667.784 949.013 642.2 978.24 608.92C989.12 596.544 999.253 583.024 1008.21 569.4C1030.08 536.016 1047.68 501.384 1067.41 472.16C1077.55 457.08 1087.79 443.456 1098.67 430.872C1126.93 398.424 1162.13 373.88 1204.91 349.44C1246.29 325.936 1293.65 301.704 1341.12 281.944C1388.59 262.08 1436.69 247 1484.59 240.552" stroke="#27EB91" stroke-miterlimit="10"/>
<path d="M-127.253 536.328C-65.28 487.448 25.6 478.504 98.1334 508.248C128.427 520.624 155.733 539.344 179.093 562.536C189.867 573.248 200 584.792 211.093 595.192C220.053 603.616 229.333 611.312 239.893 617.448C277.973 639.808 326.187 638.768 370.027 627.224C376 625.664 381.973 623.896 387.733 621.92C436.267 605.8 481.067 579.592 529.92 564.824C580.587 549.536 636.48 548.912 685.013 570.024C699.307 576.264 712.427 584.064 725.013 592.384C770.027 622.544 803.84 659.672 846.827 673.296C857.173 676.624 868.16 678.496 880.107 678.496C919.04 678.288 956.053 654.056 985.813 621.4C996.907 609.232 1007.04 595.92 1015.79 582.296C1037.23 549.016 1053.65 513.968 1071.79 482.976C1081.17 467.064 1090.56 452.192 1101.01 438.36C1127.89 402.48 1162.35 373.88 1204.27 347.152C1244.8 321.464 1291.41 296.92 1338.77 277.784C1386.24 258.648 1434.99 245.336 1483.52 240.968" stroke="#29EC8D" stroke-miterlimit="10"/>
<path d="M-126.827 531.024C-63.8934 482.56 26.6666 473.512 100.48 501.904C131.307 513.76 159.36 532.064 183.04 555.256C194.027 565.968 204.16 577.616 215.04 588.224C223.893 596.856 233.173 604.76 243.627 611.208C281.6 634.504 330.24 634.296 374.507 623.376C380.587 621.92 386.56 620.152 392.427 618.28C441.387 602.68 486.613 576.576 535.573 561.08C585.707 545.272 641.813 542.256 689.813 563.68C704 569.92 716.907 578.032 729.067 586.976C773.013 619.008 805.973 661.336 849.813 678.808C860.373 682.968 871.68 685.776 884.053 686.504C924.266 688.792 962.773 665.808 992.96 633.776C1004.16 621.816 1014.29 608.608 1022.93 595.088C1043.95 562.016 1059.09 526.448 1075.73 493.792C1084.37 476.944 1093.01 460.928 1102.83 445.744C1128.21 406.432 1162.03 373.776 1203.09 344.76C1242.77 316.784 1288.53 291.928 1335.89 273.624C1383.36 255.216 1432.75 243.568 1481.92 241.488" stroke="#2BEE88" stroke-miterlimit="10"/>
<path d="M-126.4 525.824C-62.5067 477.776 27.7332 468.52 102.72 495.768C134.08 507.208 162.88 524.888 186.88 548.184C197.973 558.896 208.107 570.544 218.987 581.464C227.733 590.2 237.013 598.416 247.467 605.072C285.44 629.304 334.4 630.032 379.2 619.632C385.28 618.176 391.36 616.616 397.333 614.744C446.827 599.664 492.373 573.872 541.44 557.544C591.147 541.216 647.253 535.808 694.827 557.544C708.8 563.888 721.493 572.312 733.44 581.776C776.32 615.784 808.32 663.208 853.227 684.424C864.107 689.624 875.627 693.16 888.427 694.72C929.92 699.504 969.813 677.872 1000.53 646.464C1011.95 634.816 1022.08 621.712 1030.51 608.192C1051.09 575.224 1064.96 539.24 1080.11 504.92C1087.89 487.24 1095.79 469.976 1105.07 453.544C1128.85 410.8 1162.13 374.088 1202.35 342.784C1241.17 312.624 1286.19 287.456 1333.44 269.88C1380.91 252.2 1430.83 242.32 1480.75 242.424" stroke="#2EF084" stroke-miterlimit="10"/>
<path d="M-125.973 520.52C-33.8134 453.024 108.587 462.176 190.827 541.008C210.987 560.352 227.947 583.336 251.307 598.832C294.507 627.432 352.213 625.664 402.24 611.104C452.267 596.544 498.133 570.856 547.307 553.8C596.48 536.744 652.693 529.256 699.84 551.2C775.573 586.456 810.027 688.584 892.587 702.624C951.147 712.608 1007.25 670.592 1037.87 620.88C1068.48 571.168 1081.6 513.136 1106.99 460.72C1172.59 325.416 1326.08 235.664 1479.36 242.632" stroke="#30F280" stroke-miterlimit="10"/>
</g>
<mask id="mask5_5_2" style="mask-type:luminance" maskUnits="userSpaceOnUse" x="0" y="0" width="1280" height="832">
<path d="M1280 0H0V832H1280V0Z" fill="white"/>
</mask>
<g mask="url(#mask5_5_2)">
<path d="M795.733 618.8C796.912 618.8 797.867 617.869 797.867 616.72C797.867 615.571 796.912 614.64 795.733 614.64C794.555 614.64 793.6 615.571 793.6 616.72C793.6 617.869 794.555 618.8 795.733 618.8Z" fill="#00D7E6"/>
<path d="M795.733 594.88C796.912 594.88 797.867 593.949 797.867 592.8C797.867 591.651 796.912 590.72 795.733 590.72C794.555 590.72 793.6 591.651 793.6 592.8C793.6 593.949 794.555 594.88 795.733 594.88Z" fill="#00D7E6"/>
<path d="M795.733 570.96C796.912 570.96 797.867 570.029 797.867 568.88C797.867 567.731 796.912 566.8 795.733 566.8C794.555 566.8 793.6 567.731 793.6 568.88C793.6 570.029 794.555 570.96 795.733 570.96Z" fill="#00D7E6"/>
<path d="M795.733 547.04C796.912 547.04 797.867 546.109 797.867 544.96C797.867 543.811 796.912 542.88 795.733 542.88C794.555 542.88 793.6 543.811 793.6 544.96C793.6 546.109 794.555 547.04 795.733 547.04Z" fill="#00D7E6"/>
<path d="M795.733 523.12C796.912 523.12 797.867 522.189 797.867 521.04C797.867 519.891 796.912 518.96 795.733 518.96C794.555 518.96 793.6 519.891 793.6 521.04C793.6 522.189 794.555 523.12 795.733 523.12Z" fill="#00D7E6"/>
<path d="M822.4 618.8C823.578 618.8 824.533 617.869 824.533 616.72C824.533 615.571 823.578 614.64 822.4 614.64C821.222 614.64 820.267 615.571 820.267 616.72C820.267 617.869 821.222 618.8 822.4 618.8Z" fill="#00D7E6"/>
<path d="M822.4 594.88C823.578 594.88 824.533 593.949 824.533 592.8C824.533 591.651 823.578 590.72 822.4 590.72C821.222 590.72 820.267 591.651 820.267 592.8C820.267 593.949 821.222 594.88 822.4 594.88Z" fill="#00D7E6"/>
<path d="M822.4 570.96C823.578 570.96 824.533 570.029 824.533 568.88C824.533 567.731 823.578 566.8 822.4 566.8C821.222 566.8 820.267 567.731 820.267 568.88C820.267 570.029 821.222 570.96 822.4 570.96Z" fill="#00D7E6"/>
<path d="M822.4 547.04C823.578 547.04 824.533 546.109 824.533 544.96C824.533 543.811 823.578 542.88 822.4 542.88C821.222 542.88 820.267 543.811 820.267 544.96C820.267 546.109 821.222 547.04 822.4 547.04Z" fill="#00D7E6"/>
<path d="M822.4 523.12C823.578 523.12 824.533 522.189 824.533 521.04C824.533 519.891 823.578 518.96 822.4 518.96C821.222 518.96 820.267 519.891 820.267 521.04C820.267 522.189 821.222 523.12 822.4 523.12Z" fill="#00D7E6"/>
<path d="M849.067 618.8C850.245 618.8 851.2 617.869 851.2 616.72C851.2 615.571 850.245 614.64 849.067 614.64C847.888 614.64 846.933 615.571 846.933 616.72C846.933 617.869 847.888 618.8 849.067 618.8Z" fill="#00D7E6"/>
<path d="M849.067 594.88C850.245 594.88 851.2 593.949 851.2 592.8C851.2 591.651 850.245 590.72 849.067 590.72C847.888 590.72 846.933 591.651 846.933 592.8C846.933 593.949 847.888 594.88 849.067 594.88Z" fill="#00D7E6"/>
<path d="M849.067 570.96C850.245 570.96 851.2 570.029 851.2 568.88C851.2 567.731 850.245 566.8 849.067 566.8C847.888 566.8 846.933 567.731 846.933 568.88C846.933 570.029 847.888 570.96 849.067 570.96Z" fill="#00D7E6"/>
<path d="M849.067 547.04C850.245 547.04 851.2 546.109 851.2 544.96C851.2 543.811 850.245 542.88 849.067 542.88C847.888 542.88 846.933 543.811 846.933 544.96C846.933 546.109 847.888 547.04 849.067 547.04Z" fill="#00D7E6"/>
<path d="M849.067 523.12C850.245 523.12 851.2 522.189 851.2 521.04C851.2 519.891 850.245 518.96 849.067 518.96C847.888 518.96 846.933 519.891 846.933 521.04C846.933 522.189 847.888 523.12 849.067 523.12Z" fill="#00D7E6"/>
<path d="M875.733 618.8C876.912 618.8 877.867 617.869 877.867 616.72C877.867 615.571 876.912 614.64 875.733 614.64C874.555 614.64 873.6 615.571 873.6 616.72C873.6 617.869 874.555 618.8 875.733 618.8Z" fill="#00D7E6"/>
<path d="M875.733 594.88C876.912 594.88 877.867 593.949 877.867 592.8C877.867 591.651 876.912 590.72 875.733 590.72C874.555 590.72 873.6 591.651 873.6 592.8C873.6 593.949 874.555 594.88 875.733 594.88Z" fill="#00D7E6"/>
<path d="M875.733 570.96C876.912 570.96 877.867 570.029 877.867 568.88C877.867 567.731 876.912 566.8 875.733 566.8C874.555 566.8 873.6 567.731 873.6 568.88C873.6 570.029 874.555 570.96 875.733 570.96Z" fill="#00D7E6"/>
<path d="M875.733 547.04C876.912 547.04 877.867 546.109 877.867 544.96C877.867 543.811 876.912 542.88 875.733 542.88C874.555 542.88 873.6 543.811 873.6 544.96C873.6 546.109 874.555 547.04 875.733 547.04Z" fill="#00D7E6"/>
<path d="M875.733 523.12C876.912 523.12 877.867 522.189 877.867 521.04C877.867 519.891 876.912 518.96 875.733 518.96C874.555 518.96 873.6 519.891 873.6 521.04C873.6 522.189 874.555 523.12 875.733 523.12Z" fill="#00D7E6"/>
<path d="M902.4 618.8C903.578 618.8 904.533 617.869 904.533 616.72C904.533 615.571 903.578 614.64 902.4 614.64C901.222 614.64 900.267 615.571 900.267 616.72C900.267 617.869 901.222 618.8 902.4 618.8Z" fill="#00D7E6"/>
<path d="M902.4 594.88C903.578 594.88 904.533 593.949 904.533 592.8C904.533 591.651 903.578 590.72 902.4 590.72C901.222 590.72 900.267 591.651 900.267 592.8C900.267 593.949 901.222 594.88 902.4 594.88Z" fill="#00D7E6"/>
<path d="M902.4 570.96C903.578 570.96 904.533 570.029 904.533 568.88C904.533 567.731 903.578 566.8 902.4 566.8C901.222 566.8 900.267 567.731 900.267 568.88C900.267 570.029 901.222 570.96 902.4 570.96Z" fill="#00D7E6"/>
<path d="M902.4 547.04C903.578 547.04 904.533 546.109 904.533 544.96C904.533 543.811 903.578 542.88 902.4 542.88C901.222 542.88 900.267 543.811 900.267 544.96C900.267 546.109 901.222 547.04 902.4 547.04Z" fill="#00D7E6"/>
<path d="M902.4 523.12C903.578 523.12 904.533 522.189 904.533 521.04C904.533 519.891 903.578 518.96 902.4 518.96C901.222 518.96 900.267 519.891 900.267 521.04C900.267 522.189 901.222 523.12 902.4 523.12Z" fill="#00D7E6"/>
<path d="M929.067 618.8C930.245 618.8 931.2 617.869 931.2 616.72C931.2 615.571 930.245 614.64 929.067 614.64C927.888 614.64 926.933 615.571 926.933 616.72C926.933 617.869 927.888 618.8 929.067 618.8Z" fill="#00D7E6"/>
<path d="M929.067 594.88C930.245 594.88 931.2 593.949 931.2 592.8C931.2 591.651 930.245 590.72 929.067 590.72C927.888 590.72 926.933 591.651 926.933 592.8C926.933 593.949 927.888 594.88 929.067 594.88Z" fill="#00D7E6"/>
<path d="M929.067 570.96C930.245 570.96 931.2 570.029 931.2 568.88C931.2 567.731 930.245 566.8 929.067 566.8C927.888 566.8 926.933 567.731 926.933 568.88C926.933 570.029 927.888 570.96 929.067 570.96Z" fill="#00D7E6"/>
<path d="M929.067 547.04C930.245 547.04 931.2 546.109 931.2 544.96C931.2 543.811 930.245 542.88 929.067 542.88C927.888 542.88 926.933 543.811 926.933 544.96C926.933 546.109 927.888 547.04 929.067 547.04Z" fill="#00D7E6"/>
<path d="M929.067 523.12C930.245 523.12 931.2 522.189 931.2 521.04C931.2 519.891 930.245 518.96 929.067 518.96C927.888 518.96 926.933 519.891 926.933 521.04C926.933 522.189 927.888 523.12 929.067 523.12Z" fill="#00D7E6"/>
<path d="M955.733 618.8C956.912 618.8 957.867 617.869 957.867 616.72C957.867 615.571 956.912 614.64 955.733 614.64C954.555 614.64 953.6 615.571 953.6 616.72C953.6 617.869 954.555 618.8 955.733 618.8Z" fill="#00D7E6"/>
<path d="M955.733 594.88C956.912 594.88 957.867 593.949 957.867 592.8C957.867 591.651 956.912 590.72 955.733 590.72C954.555 590.72 953.6 591.651 953.6 592.8C953.6 593.949 954.555 594.88 955.733 594.88Z" fill="#00D7E6"/>
<path d="M955.733 570.96C956.912 570.96 957.867 570.029 957.867 568.88C957.867 567.731 956.912 566.8 955.733 566.8C954.555 566.8 953.6 567.731 953.6 568.88C953.6 570.029 954.555 570.96 955.733 570.96Z" fill="#00D7E6"/>
<path d="M955.733 547.04C956.912 547.04 957.867 546.109 957.867 544.96C957.867 543.811 956.912 542.88 955.733 542.88C954.555 542.88 953.6 543.811 953.6 544.96C953.6 546.109 954.555 547.04 955.733 547.04Z" fill="#00D7E6"/>
<path d="M955.733 523.12C956.912 523.12 957.867 522.189 957.867 521.04C957.867 519.891 956.912 518.96 955.733 518.96C954.555 518.96 953.6 519.891 953.6 521.04C953.6 522.189 954.555 523.12 955.733 523.12Z" fill="#00D7E6"/>
<path d="M982.4 618.8C983.578 618.8 984.533 617.869 984.533 616.72C984.533 615.571 983.578 614.64 982.4 614.64C981.222 614.64 980.267 615.571 980.267 616.72C980.267 617.869 981.222 618.8 982.4 618.8Z" fill="#00D7E6"/>
<path d="M982.4 594.88C983.578 594.88 984.533 593.949 984.533 592.8C984.533 591.651 983.578 590.72 982.4 590.72C981.222 590.72 980.267 591.651 980.267 592.8C980.267 593.949 981.222 594.88 982.4 594.88Z" fill="#00D7E6"/>
<path d="M982.4 570.96C983.578 570.96 984.533 570.029 984.533 568.88C984.533 567.731 983.578 566.8 982.4 566.8C981.222 566.8 980.267 567.731 980.267 568.88C980.267 570.029 981.222 570.96 982.4 570.96Z" fill="#00D7E6"/>
<path d="M982.4 547.04C983.578 547.04 984.533 546.109 984.533 544.96C984.533 543.811 983.578 542.88 982.4 542.88C981.222 542.88 980.267 543.811 980.267 544.96C980.267 546.109 981.222 547.04 982.4 547.04Z" fill="#00D7E6"/>
<path d="M982.4 523.12C983.578 523.12 984.533 522.189 984.533 521.04C984.533 519.891 983.578 518.96 982.4 518.96C981.222 518.96 980.267 519.891 980.267 521.04C980.267 522.189 981.222 523.12 982.4 523.12Z" fill="#00D7E6"/>
<path d="M1009.07 618.8C1010.24 618.8 1011.2 617.869 1011.2 616.72C1011.2 615.571 1010.24 614.64 1009.07 614.64C1007.89 614.64 1006.93 615.571 1006.93 616.72C1006.93 617.869 1007.89 618.8 1009.07 618.8Z" fill="#00D7E6"/>
<path d="M1009.07 594.88C1010.24 594.88 1011.2 593.949 1011.2 592.8C1011.2 591.651 1010.24 590.72 1009.07 590.72C1007.89 590.72 1006.93 591.651 1006.93 592.8C1006.93 593.949 1007.89 594.88 1009.07 594.88Z" fill="#00D7E6"/>
<path d="M1009.07 570.96C1010.24 570.96 1011.2 570.029 1011.2 568.88C1011.2 567.731 1010.24 566.8 1009.07 566.8C1007.89 566.8 1006.93 567.731 1006.93 568.88C1006.93 570.029 1007.89 570.96 1009.07 570.96Z" fill="#00D7E6"/>
<path d="M1009.07 547.04C1010.24 547.04 1011.2 546.109 1011.2 544.96C1011.2 543.811 1010.24 542.88 1009.07 542.88C1007.89 542.88 1006.93 543.811 1006.93 544.96C1006.93 546.109 1007.89 547.04 1009.07 547.04Z" fill="#00D7E6"/>
<path d="M1009.07 523.12C1010.24 523.12 1011.2 522.189 1011.2 521.04C1011.2 519.891 1010.24 518.96 1009.07 518.96C1007.89 518.96 1006.93 519.891 1006.93 521.04C1006.93 522.189 1007.89 523.12 1009.07 523.12Z" fill="#00D7E6"/>
<path d="M1035.73 618.8C1036.91 618.8 1037.87 617.869 1037.87 616.72C1037.87 615.571 1036.91 614.64 1035.73 614.64C1034.56 614.64 1033.6 615.571 1033.6 616.72C1033.6 617.869 1034.56 618.8 1035.73 618.8Z" fill="#00D7E6"/>
<path d="M1035.73 594.88C1036.91 594.88 1037.87 593.949 1037.87 592.8C1037.87 591.651 1036.91 590.72 1035.73 590.72C1034.56 590.72 1033.6 591.651 1033.6 592.8C1033.6 593.949 1034.56 594.88 1035.73 594.88Z" fill="#00D7E6"/>
<path d="M1035.73 570.96C1036.91 570.96 1037.87 570.029 1037.87 568.88C1037.87 567.731 1036.91 566.8 1035.73 566.8C1034.56 566.8 1033.6 567.731 1033.6 568.88C1033.6 570.029 1034.56 570.96 1035.73 570.96Z" fill="#00D7E6"/>
<path d="M1035.73 547.04C1036.91 547.04 1037.87 546.109 1037.87 544.96C1037.87 543.811 1036.91 542.88 1035.73 542.88C1034.56 542.88 1033.6 543.811 1033.6 544.96C1033.6 546.109 1034.56 547.04 1035.73 547.04Z" fill="#00D7E6"/>
<path d="M1035.73 523.12C1036.91 523.12 1037.87 522.189 1037.87 521.04C1037.87 519.891 1036.91 518.96 1035.73 518.96C1034.56 518.96 1033.6 519.891 1033.6 521.04C1033.6 522.189 1034.56 523.12 1035.73 523.12Z" fill="#00D7E6"/>
<path d="M1062.4 618.8C1063.58 618.8 1064.53 617.869 1064.53 616.72C1064.53 615.571 1063.58 614.64 1062.4 614.64C1061.22 614.64 1060.27 615.571 1060.27 616.72C1060.27 617.869 1061.22 618.8 1062.4 618.8Z" fill="#00D7E6"/>
<path d="M1062.4 594.88C1063.58 594.88 1064.53 593.949 1064.53 592.8C1064.53 591.651 1063.58 590.72 1062.4 590.72C1061.22 590.72 1060.27 591.651 1060.27 592.8C1060.27 593.949 1061.22 594.88 1062.4 594.88Z" fill="#00D7E6"/>
<path d="M1062.4 570.96C1063.58 570.96 1064.53 570.029 1064.53 568.88C1064.53 567.731 1063.58 566.8 1062.4 566.8C1061.22 566.8 1060.27 567.731 1060.27 568.88C1060.27 570.029 1061.22 570.96 1062.4 570.96Z" fill="#00D7E6"/>
<path d="M1062.4 547.04C1063.58 547.04 1064.53 546.109 1064.53 544.96C1064.53 543.811 1063.58 542.88 1062.4 542.88C1061.22 542.88 1060.27 543.811 1060.27 544.96C1060.27 546.109 1061.22 547.04 1062.4 547.04Z" fill="#00D7E6"/>
<path d="M1062.4 523.12C1063.58 523.12 1064.53 522.189 1064.53 521.04C1064.53 519.891 1063.58 518.96 1062.4 518.96C1061.22 518.96 1060.27 519.891 1060.27 521.04C1060.27 522.189 1061.22 523.12 1062.4 523.12Z" fill="#00D7E6"/>
<path d="M1089.07 618.8C1090.24 618.8 1091.2 617.869 1091.2 616.72C1091.2 615.571 1090.24 614.64 1089.07 614.64C1087.89 614.64 1086.93 615.571 1086.93 616.72C1086.93 617.869 1087.89 618.8 1089.07 618.8Z" fill="#00D7E6"/>
<path d="M1089.07 594.88C1090.24 594.88 1091.2 593.949 1091.2 592.8C1091.2 591.651 1090.24 590.72 1089.07 590.72C1087.89 590.72 1086.93 591.651 1086.93 592.8C1086.93 593.949 1087.89 594.88 1089.07 594.88Z" fill="#00D7E6"/>
<path d="M1089.07 570.96C1090.24 570.96 1091.2 570.029 1091.2 568.88C1091.2 567.731 1090.24 566.8 1089.07 566.8C1087.89 566.8 1086.93 567.731 1086.93 568.88C1086.93 570.029 1087.89 570.96 1089.07 570.96Z" fill="#00D7E6"/>
<path d="M1089.07 547.04C1090.24 547.04 1091.2 546.109 1091.2 544.96C1091.2 543.811 1090.24 542.88 1089.07 542.88C1087.89 542.88 1086.93 543.811 1086.93 544.96C1086.93 546.109 1087.89 547.04 1089.07 547.04Z" fill="#00D7E6"/>
<path d="M1089.07 523.12C1090.24 523.12 1091.2 522.189 1091.2 521.04C1091.2 519.891 1090.24 518.96 1089.07 518.96C1087.89 518.96 1086.93 519.891 1086.93 521.04C1086.93 522.189 1087.89 523.12 1089.07 523.12Z" fill="#00D7E6"/>
<path d="M1115.73 618.8C1116.91 618.8 1117.87 617.869 1117.87 616.72C1117.87 615.571 1116.91 614.64 1115.73 614.64C1114.55 614.64 1113.6 615.571 1113.6 616.72C1113.6 617.869 1114.55 618.8 1115.73 618.8Z" fill="#00D7E6"/>
<path d="M1115.73 594.88C1116.91 594.88 1117.87 593.949 1117.87 592.8C1117.87 591.651 1116.91 590.72 1115.73 590.72C1114.55 590.72 1113.6 591.651 1113.6 592.8C1113.6 593.949 1114.55 594.88 1115.73 594.88Z" fill="#00D7E6"/>
<path d="M1115.73 570.96C1116.91 570.96 1117.87 570.029 1117.87 568.88C1117.87 567.731 1116.91 566.8 1115.73 566.8C1114.55 566.8 1113.6 567.731 1113.6 568.88C1113.6 570.029 1114.55 570.96 1115.73 570.96Z" fill="#00D7E6"/>
<path d="M1115.73 547.04C1116.91 547.04 1117.87 546.109 1117.87 544.96C1117.87 543.811 1116.91 542.88 1115.73 542.88C1114.55 542.88 1113.6 543.811 1113.6 544.96C1113.6 546.109 1114.55 547.04 1115.73 547.04Z" fill="#00D7E6"/>
<path d="M1115.73 523.12C1116.91 523.12 1117.87 522.189 1117.87 521.04C1117.87 519.891 1116.91 518.96 1115.73 518.96C1114.55 518.96 1113.6 519.891 1113.6 521.04C1113.6 522.189 1114.55 523.12 1115.73 523.12Z" fill="#00D7E6"/>
<path d="M1142.4 618.8C1143.58 618.8 1144.53 617.869 1144.53 616.72C1144.53 615.571 1143.58 614.64 1142.4 614.64C1141.22 614.64 1140.27 615.571 1140.27 616.72C1140.27 617.869 1141.22 618.8 1142.4 618.8Z" fill="#00D7E6"/>
<path d="M1142.4 594.88C1143.58 594.88 1144.53 593.949 1144.53 592.8C1144.53 591.651 1143.58 590.72 1142.4 590.72C1141.22 590.72 1140.27 591.651 1140.27 592.8C1140.27 593.949 1141.22 594.88 1142.4 594.88Z" fill="#00D7E6"/>
<path d="M1142.4 570.96C1143.58 570.96 1144.53 570.029 1144.53 568.88C1144.53 567.731 1143.58 566.8 1142.4 566.8C1141.22 566.8 1140.27 567.731 1140.27 568.88C1140.27 570.029 1141.22 570.96 1142.4 570.96Z" fill="#00D7E6"/>
<path d="M1142.4 547.04C1143.58 547.04 1144.53 546.109 1144.53 544.96C1144.53 543.811 1143.58 542.88 1142.4 542.88C1141.22 542.88 1140.27 543.811 1140.27 544.96C1140.27 546.109 1141.22 547.04 1142.4 547.04Z" fill="#00D7E6"/>
<path d="M1142.4 523.12C1143.58 523.12 1144.53 522.189 1144.53 521.04C1144.53 519.891 1143.58 518.96 1142.4 518.96C1141.22 518.96 1140.27 519.891 1140.27 521.04C1140.27 522.189 1141.22 523.12 1142.4 523.12Z" fill="#00D7E6"/>
<path d="M1169.07 618.8C1170.24 618.8 1171.2 617.869 1171.2 616.72C1171.2 615.571 1170.24 614.64 1169.07 614.64C1167.89 614.64 1166.93 615.571 1166.93 616.72C1166.93 617.869 1167.89 618.8 1169.07 618.8Z" fill="#00D7E6"/>
<path d="M1169.07 594.88C1170.24 594.88 1171.2 593.949 1171.2 592.8C1171.2 591.651 1170.24 590.72 1169.07 590.72C1167.89 590.72 1166.93 591.651 1166.93 592.8C1166.93 593.949 1167.89 594.88 1169.07 594.88Z" fill="#00D7E6"/>
<path d="M1169.07 570.96C1170.24 570.96 1171.2 570.029 1171.2 568.88C1171.2 567.731 1170.24 566.8 1169.07 566.8C1167.89 566.8 1166.93 567.731 1166.93 568.88C1166.93 570.029 1167.89 570.96 1169.07 570.96Z" fill="#00D7E6"/>
<path d="M1169.07 547.04C1170.24 547.04 1171.2 546.109 1171.2 544.96C1171.2 543.811 1170.24 542.88 1169.07 542.88C1167.89 542.88 1166.93 543.811 1166.93 544.96C1166.93 546.109 1167.89 547.04 1169.07 547.04Z" fill="#00D7E6"/>
<path d="M1169.07 523.12C1170.24 523.12 1171.2 522.189 1171.2 521.04C1171.2 519.891 1170.24 518.96 1169.07 518.96C1167.89 518.96 1166.93 519.891 1166.93 521.04C1166.93 522.189 1167.89 523.12 1169.07 523.12Z" fill="#00D7E6"/>
</g>
</svg>
